<?xml version="1.0" standalone="no"?>
<!DOCTYPE svg PUBLIC "-//W3C//DTD SVG 20010904//EN"
 "http://www.w3.org/TR/2001/REC-SVG-20010904/DTD/svg10.dtd">
<svg version="1.0" xmlns="http://www.w3.org/2000/svg"
 width="728.000000pt" height="535.000000pt" viewBox="0 0 728.000000 535.000000"
 preserveAspectRatio="xMidYMid meet">

<g transform="translate(0.000000,535.000000) scale(0.100000,-0.100000)"
fill="#000000" stroke="none">
<path d="M4155 5040 c3 -5 8 -10 11 -10 2 0 4 5 4 10 0 6 -5 10 -11 10 -5 0
-7 -4 -4 -10z"/>
<path d="M3458 5023 c6 -2 18 -2 25 0 6 3 1 5 -13 5 -14 0 -19 -2 -12 -5z"/>
<path d="M2455 5001 c-11 -19 -14 -50 -5 -56 5 -3 11 9 15 26 7 32 2 48 -10
30z"/>
<path d="M2880 4994 c0 -8 5 -12 10 -9 6 3 10 10 10 16 0 5 -4 9 -10 9 -5 0
-10 -7 -10 -16z"/>
<path d="M2820 4990 c0 -5 5 -10 11 -10 5 0 7 5 4 10 -3 6 -8 10 -11 10 -2 0
-4 -4 -4 -10z"/>
<path d="M2398 4948 c-13 -18 -31 -48 -39 -65 -8 -18 -17 -33 -20 -33 -9 0
-33 -79 -26 -87 4 -3 7 2 7 13 0 11 9 25 19 31 11 7 25 28 32 48 9 23 19 35
32 35 17 0 18 2 6 17 -12 15 -12 16 3 11 10 -4 19 -1 22 9 9 21 -3 31 -14 13
-6 -8 -10 -10 -10 -4 0 5 5 15 12 22 6 6 9 14 6 17 -3 3 -16 -9 -30 -27z"/>
<path d="M2856 4962 c-3 -6 -1 -14 5 -17 14 -9 20 -2 10 14 -6 8 -11 9 -15 3z"/>
<path d="M2886 4955 c4 -8 10 -12 15 -9 11 6 2 24 -11 24 -5 0 -7 -7 -4 -15z"/>
<path d="M4162 4940 c0 -14 2 -19 5 -12 2 6 2 18 0 25 -3 6 -5 1 -5 -13z"/>
<path d="M2730 4905 c0 -36 -4 -45 -17 -46 -14 0 -15 -2 -3 -6 8 -3 22 -11 30
-19 8 -7 47 -14 88 -15 58 -3 72 -7 72 -19 0 -12 17 -19 65 -27 57 -10 71 -9
117 9 29 11 58 24 64 29 22 18 150 42 254 46 110 5 206 -7 298 -37 51 -17 52
-17 37 0 -12 13 -13 19 -4 22 7 2 -5 4 -27 5 -53 1 -133 14 -139 23 -5 7 -184
4 -260 -5 -58 -7 -106 -20 -154 -44 -39 -18 -207 -19 -241 -1 -10 5 -46 10
-79 10 -33 0 -62 4 -65 8 -3 5 8 6 25 4 31 -5 41 14 12 21 -10 2 -8 3 5 2 12
-1 25 2 28 7 4 6 -12 8 -37 7 -38 -3 -44 -1 -47 17 -3 19 0 20 60 13 35 -4 97
-8 138 -7 102 1 53 14 -80 21 -56 3 -108 11 -113 16 -20 20 -27 11 -27 -34z"/>
<path d="M2545 4930 c-3 -5 3 -10 14 -10 11 0 23 5 26 10 3 6 -3 10 -14 10
-11 0 -23 -4 -26 -10z"/>
<path d="M2670 4900 c-23 -7 -23 -8 -3 -9 12 -1 25 4 28 9 3 6 5 10 3 9 -2 -1
-14 -5 -28 -9z"/>
<path d="M3110 4897 c72 -10 139 -11 128 -2 -2 1 -50 5 -108 8 l-105 6 85 -12z"/>
<path d="M2615 4890 c-17 -6 -13 -9 20 -19 49 -14 58 -14 50 -1 -3 6 -15 10
-25 10 -10 0 -20 4 -22 9 -1 4 -12 5 -23 1z"/>
<path d="M3150 4876 c0 -2 7 -7 16 -10 8 -3 12 -2 9 4 -6 10 -25 14 -25 6z"/>
<path d="M3890 4869 c65 -11 170 -11 170 0 0 6 -46 9 -107 9 -85 -1 -98 -3
-63 -9z"/>
<path d="M4345 4840 c3 -5 8 -10 11 -10 2 0 4 5 4 10 0 6 -5 10 -11 10 -5 0
-7 -4 -4 -10z"/>
<path d="M2415 4820 c-27 -30 -12 -34 15 -5 13 14 19 25 13 25 -5 0 -18 -9
-28 -20z"/>
<path d="M2497 4834 c-4 -4 -7 -14 -7 -23 0 -11 3 -12 11 -4 6 6 10 16 7 23
-2 6 -7 8 -11 4z"/>
<path d="M3443 4833 c9 -2 23 -2 30 0 6 3 -1 5 -18 5 -16 0 -22 -2 -12 -5z"/>
<path d="M3508 4833 c7 -3 16 -2 19 1 4 3 -2 6 -13 5 -11 0 -14 -3 -6 -6z"/>
<path d="M3298 4823 c7 -3 16 -2 19 1 4 3 -2 6 -13 5 -11 0 -14 -3 -6 -6z"/>
<path d="M3580 4820 c34 -11 60 -11 35 0 -11 5 -29 8 -40 8 -16 0 -15 -2 5 -8z"/>
<path d="M2539 4803 c-20 -8 -41 -25 -46 -36 -13 -32 -10 -82 5 -79 16 3 15
-6 -3 -24 -8 -9 -15 -29 -15 -45 0 -16 -5 -29 -10 -29 -6 0 -8 27 -4 73 4 57
3 68 -6 54 -17 -26 -9 -175 9 -186 8 -5 11 -16 8 -24 -8 -21 10 -25 101 -27
49 0 71 3 67 10 -3 5 -17 10 -29 10 -13 0 -38 6 -56 14 -25 10 -29 14 -15 19
9 4 26 2 37 -4 32 -17 32 -3 -1 21 -32 22 -44 57 -16 46 8 -3 22 -9 30 -12 10
-4 15 0 15 14 0 11 6 32 14 47 l15 28 6 -36 c4 -20 13 -41 21 -48 18 -14 17
-11 -1 41 -8 23 -15 59 -15 79 0 20 -5 43 -10 51 -7 11 -8 6 -4 -17 4 -22 3
-33 -5 -33 -7 0 -9 5 -6 10 12 19 -26 23 -45 5 -11 -10 -22 -16 -25 -13 -9 8
6 38 19 38 15 1 56 36 56 49 0 6 -6 11 -14 11 -8 0 -20 2 -28 4 -7 2 -29 -3
-49 -11z m61 -18 c-7 -9 -19 -14 -27 -11 -7 3 -13 1 -13 -4 0 -5 -9 -12 -20
-15 -12 -4 -20 -15 -20 -28 0 -18 -2 -19 -10 -7 -21 33 -2 52 64 66 10 2 21 6
24 9 12 12 13 4 2 -10z"/>
<path d="M3398 4813 c6 -2 18 -2 25 0 6 3 1 5 -13 5 -14 0 -19 -2 -12 -5z"/>
<path d="M4344 4782 c3 -29 10 -36 29 -29 9 4 9 6 0 6 -7 1 -13 10 -13 20 0
11 -4 22 -9 25 -5 3 -8 -7 -7 -22z"/>
<path d="M3175 4790 c-19 -8 -19 -9 3 -9 12 -1 22 4 22 9 0 6 -1 10 -2 9 -2 0
-12 -4 -23 -9z"/>
<path d="M3775 4791 c19 -9 93 -15 84 -7 -2 2 -26 6 -54 10 -34 4 -43 3 -30
-3z"/>
<path d="M4002 4756 c0 -22 -6 -42 -12 -44 -5 -2 -10 -14 -10 -27 0 -13 -4
-26 -9 -30 -6 -3 -4 -16 4 -31 7 -15 11 -32 9 -39 -3 -7 -1 -15 4 -19 5 -3 8
8 7 24 -1 17 2 30 7 30 4 0 8 -13 8 -29 0 -16 3 -36 6 -45 4 -10 1 -16 -9 -16
-22 0 -37 24 -41 66 -3 30 -8 38 -21 36 -9 -2 -24 3 -33 11 -31 26 -49 32 -29
10 9 -11 17 -24 17 -30 0 -6 7 -16 16 -24 9 -7 32 -45 51 -83 20 -39 44 -83
54 -97 10 -14 27 -52 38 -85 22 -64 34 -184 19 -184 -5 0 -6 -9 -3 -20 3 -11
5 -20 3 -20 -2 0 -28 7 -58 15 -112 30 -362 47 -605 42 -222 -5 -340 -17 -490
-52 -33 -8 -61 -12 -63 -11 -12 13 228 60 363 72 115 10 162 13 203 13 26 1
41 5 37 11 -9 14 -242 5 -345 -14 -105 -19 -100 -19 -100 -1 0 8 -7 15 -16 15
-15 0 -44 23 -44 34 0 3 7 6 16 6 8 0 13 -4 9 -9 -3 -5 -1 -12 4 -15 15 -9 39
4 44 24 3 13 11 16 31 13 15 -3 26 -1 26 6 0 6 -7 11 -15 11 -8 0 -15 7 -15
15 0 8 -6 15 -14 15 -21 0 -31 21 -15 30 7 5 17 6 21 4 5 -3 11 2 14 10 3 9
10 16 16 16 5 0 16 7 24 15 14 13 14 15 0 15 -9 0 -16 -4 -16 -10 0 -5 -4 -10
-10 -10 -16 0 -11 27 6 34 31 12 8 16 -29 5 -36 -10 -77 -5 -77 9 0 4 18 15
40 26 21 10 41 25 44 32 7 19 -47 18 -85 -1 l-30 -16 26 41 c28 45 27 48 -13
23 l-27 -16 20 21 c11 12 38 30 60 41 28 14 34 20 19 21 -11 0 -42 -14 -68
-31 -27 -16 -50 -28 -52 -26 -2 2 7 21 21 41 29 42 31 56 10 56 -9 0 -15 9
-15 22 0 39 -14 8 -16 -37 -4 -54 -13 -73 -26 -54 -5 9 -6 4 -2 -13 4 -18 2
-28 -5 -28 -6 0 -11 9 -11 20 0 11 -4 20 -9 20 -4 0 -11 -27 -14 -60 -6 -54
-29 -120 -43 -120 -2 0 3 14 11 31 9 17 14 36 12 42 -3 7 -14 -9 -25 -34 -19
-43 -42 -72 -42 -52 0 5 -9 9 -20 10 -24 2 -26 -10 -5 -27 8 -7 15 -23 15 -36
0 -26 -9 -25 -67 4 -39 20 -44 36 -7 22 38 -15 53 -11 24 5 -14 8 -40 14 -57
15 -40 0 -41 12 -8 56 28 37 34 60 7 29 -9 -11 -32 -31 -50 -43 -18 -13 -30
-28 -27 -33 4 -5 -1 -9 -11 -9 -20 0 -43 28 -44 51 0 22 -27 32 -34 13 -9 -23
-7 -46 3 -40 8 5 6 -48 -4 -97 -2 -10 3 -37 11 -59 16 -47 19 -122 4 -113 -5
3 -10 -1 -10 -10 0 -9 4 -14 9 -11 12 8 20 -86 9 -101 -7 -8 5 -8 46 1 31 8
56 11 56 8 0 -2 6 0 13 5 6 6 25 13 42 17 35 9 44 21 38 47 -5 19 -33 27 -33
9 0 -5 5 -10 10 -10 19 0 10 -28 -10 -33 -17 -4 -19 -1 -14 18 7 28 -31 42
-46 17 -8 -14 -10 -14 -10 -2 -1 12 -3 12 -14 -2 -7 -10 -16 -15 -19 -11 -4 3
-7 1 -7 -5 0 -7 -5 -12 -11 -12 -15 0 -6 44 11 52 12 5 10 8 -7 14 -23 6 -33
34 -13 34 6 0 10 -4 10 -10 0 -5 7 -10 16 -10 13 0 11 5 -8 23 -31 29 -43 74
-28 108 9 21 10 20 5 -12 -10 -68 62 -106 104 -53 21 26 19 46 -7 76 -11 13
-19 15 -33 8 -23 -13 -49 -13 -49 0 0 19 53 24 82 7 15 -9 28 -12 28 -6 0 6 5
7 10 4 6 -3 8 -18 5 -33 -8 -48 -12 -77 -8 -64 6 17 20 15 27 -4 9 -22 8 -26
-5 -19 -6 4 -5 -2 2 -14 8 -11 16 -16 19 -12 3 5 6 -10 7 -34 2 -57 19 -89 41
-79 9 4 43 10 75 12 31 2 57 8 57 13 0 8 -22 13 -43 10 -4 -1 -2 7 4 18 10 14
19 17 43 11 17 -4 59 -1 93 6 127 26 264 36 473 35 118 0 242 -3 275 -6 33 -3
91 -7 128 -9 37 -2 71 -6 74 -10 4 -3 17 -6 31 -6 15 0 22 -5 19 -12 -5 -15
-6 -15 -147 7 -229 35 -568 30 -827 -11 -86 -14 -103 -20 -103 -35 0 -13 -13
-20 -52 -28 -28 -7 -58 -17 -66 -24 -12 -9 -16 -9 -19 1 -3 6 -13 12 -23 12
-10 0 -20 5 -22 10 -2 6 -22 8 -51 4 -39 -6 -47 -10 -47 -27 0 -16 -3 -18 -12
-9 -15 15 -32 16 -23 2 3 -6 -1 -18 -11 -27 -16 -16 -16 -16 -9 6 5 17 4 22
-6 19 -8 -3 -13 -15 -11 -28 2 -14 0 -20 -7 -16 -6 4 -11 16 -11 27 0 12 -5
19 -12 17 -15 -5 -29 -74 -22 -100 3 -10 1 -18 -5 -18 -11 0 -15 56 -12 155
l2 50 -25 -29 c-13 -16 -30 -41 -37 -55 -8 -14 -15 -28 -16 -30 -1 -2 -9 2
-18 9 -12 10 -15 10 -15 -4 0 -9 -4 -16 -10 -16 -14 0 -13 13 2 28 7 7 8 12 2
12 -5 0 -9 15 -8 33 1 27 1 28 -3 4 -3 -21 -9 -27 -20 -23 -11 5 -14 2 -9 -9
3 -9 2 -13 -4 -10 -6 3 -10 13 -10 21 0 8 -4 22 -10 32 -13 24 -40 126 -40
154 -1 21 -2 21 -11 5 -6 -10 -8 -28 -5 -40 23 -78 66 -255 66 -269 0 -10 -4
-18 -10 -18 -5 0 -10 16 -10 35 0 36 -15 48 -23 18 -3 -10 -5 -1 -6 19 0 20
-5 38 -11 40 -5 2 -11 18 -13 35 -2 18 -11 41 -21 52 -13 14 -17 36 -17 85 0
37 2 75 6 85 3 11 2 22 -4 25 -16 10 -23 -192 -11 -339 7 -77 14 -175 17 -217
5 -80 16 -95 43 -63 7 8 19 15 28 15 8 0 23 6 31 14 9 7 33 17 54 20 l39 7
-22 -23 c-18 -19 -19 -24 -6 -26 9 -2 16 -8 16 -13 0 -6 4 -8 9 -4 5 3 18 -6
29 -20 11 -14 25 -25 30 -25 6 0 14 -10 18 -22 6 -19 7 -19 16 -5 13 24 35 21
49 -5 8 -14 14 -18 17 -10 6 20 32 13 32 -9 0 -17 5 -20 24 -17 14 3 31 1 38
-4 9 -7 8 -8 -6 -4 -14 5 -17 2 -12 -10 5 -13 2 -15 -13 -11 -19 5 -19 4 -4
-19 13 -20 33 -25 33 -8 0 3 -4 2 -10 -1 -5 -3 -10 -1 -10 4 0 21 39 11 46
-11 3 -12 15 -35 26 -52 l20 -31 -7 29 c-5 26 -4 28 9 17 9 -8 16 -21 16 -30
0 -9 7 -29 15 -45 8 -15 15 -33 15 -40 0 -6 6 -23 14 -37 7 -15 14 -46 14 -69
1 -23 6 -48 13 -56 11 -14 9 -41 -6 -78 -6 -14 -5 -17 4 -12 9 6 10 0 5 -21
-14 -62 -45 -111 -113 -183 -39 -41 -71 -79 -71 -83 0 -11 42 13 56 31 6 8 19
15 30 16 32 3 67 27 104 70 l35 41 -50 -44 c-51 -44 -85 -66 -85 -56 0 3 18
30 40 59 22 29 46 70 54 92 20 57 20 220 1 278 -17 50 -12 108 11 127 11 9 20
8 39 -5 24 -16 25 -16 25 4 0 12 5 18 10 15 18 -11 11 14 -20 72 -17 31 -28
58 -25 61 3 3 6 3 8 1 67 -112 81 -179 38 -189 -21 -5 -22 -7 -8 -19 18 -15
37 -7 37 15 0 8 5 12 11 9 7 -5 3 -15 -10 -29 -24 -26 -26 -36 -8 -36 7 0 18
9 25 21 12 19 15 20 37 5 31 -20 41 -20 25 -1 -18 22 3 18 34 -6 14 -11 30
-18 35 -15 5 3 8 -1 7 -10 -1 -16 6 -20 159 -75 164 -59 338 -43 508 49 42 24
65 42 62 50 -3 9 1 11 14 7 15 -4 31 8 67 49 26 31 60 77 76 103 15 27 28 42
28 35 0 -21 -29 -72 -77 -135 -24 -33 -42 -62 -39 -65 8 -7 10 -5 84 95 60 80
67 105 39 124 -6 4 -3 16 7 30 9 13 16 29 16 36 0 6 5 24 12 40 6 15 12 35 12
43 1 8 12 17 26 21 14 4 18 8 10 8 -9 1 -11 4 -4 9 12 8 44 54 44 62 0 3 -11
7 -25 8 -14 1 -25 -3 -25 -8 0 -6 -4 -10 -10 -10 -5 0 -10 8 -10 19 0 18 52
51 80 51 7 0 11 16 9 48 -5 77 0 139 10 124 4 -7 6 -24 3 -38 -2 -14 0 -24 7
-24 6 0 11 -13 11 -28 0 -25 5 -29 61 -46 33 -10 59 -19 57 -22 -3 -2 -20 1
-39 6 -51 15 -89 13 -89 -5 0 -8 11 -17 25 -21 22 -5 25 -12 25 -53 l1 -46 16
27 c31 50 99 61 172 28 50 -23 65 -20 27 5 -14 10 -26 22 -26 27 0 5 -9 17
-20 26 -19 17 -19 17 5 91 22 66 23 79 12 115 l-12 42 -88 -11 c-72 -9 -90 -8
-100 3 -8 11 -8 13 4 11 7 -1 51 1 97 6 59 5 80 11 73 18 -6 6 -11 19 -11 29
0 14 -4 16 -23 9 -14 -6 -30 -5 -41 1 -12 7 -22 6 -32 -3 -26 -21 -25 -3 1 21
14 13 25 18 25 12 0 -7 5 -12 11 -12 6 0 9 7 5 15 -5 13 10 20 37 16 4 0 7 8
7 19 0 11 -4 20 -10 20 -5 0 -10 -4 -10 -10 0 -5 -9 -10 -20 -10 -18 0 -16 4
12 30 25 23 30 32 20 38 -8 5 -13 13 -12 18 4 27 -10 45 -28 39 -11 -3 -23 -1
-26 4 -4 6 -14 8 -24 5 -13 -5 -14 -4 -3 4 7 5 10 15 7 21 -6 10 5 13 54 13 3
1 19 -3 35 -6 28 -7 29 -6 13 10 -28 28 -208 23 -208 -6 0 -6 12 -8 28 -4 l27
6 -25 -15 c-52 -29 -69 12 -22 55 47 43 92 70 122 73 15 1 41 11 57 23 27 21
27 21 5 22 -12 0 -25 -6 -28 -14 -4 -10 -18 -13 -45 -11 -25 2 -39 0 -39 -8 0
-7 -7 -3 -15 7 -15 19 -15 19 -15 -2 0 -12 -4 -22 -10 -22 -5 0 -10 5 -10 10
0 6 -5 10 -11 10 -7 0 -9 -10 -5 -25 5 -18 -1 -31 -24 -55 -28 -29 -30 -29
-40 -10 -6 11 -17 20 -24 20 -18 0 -34 42 -40 105 -3 28 -8 60 -10 72 -4 20
-1 21 32 16 49 -6 84 -24 78 -39 -3 -7 1 -15 8 -17 10 -4 12 12 8 71 -5 98
-18 153 -36 146 -7 -3 -37 -1 -67 4 l-55 8 -2 -40z m128 -33 c0 -11 -6 -14
-25 -9 -14 4 -25 2 -25 -4 0 -5 14 -10 30 -10 27 0 30 -3 30 -30 0 -28 -3 -30
-34 -30 -19 0 -46 4 -60 10 -22 8 -26 16 -26 50 0 45 10 50 34 18 16 -23 16
-23 6 -1 -9 20 -7 22 22 25 40 4 48 1 48 -19z m-37 -323 c3 -11 1 -23 -4 -26
-5 -3 -9 6 -9 20 0 31 6 34 13 6z m37 -74 c0 -6 -7 -2 -15 8 -8 11 -15 25 -15
30 0 6 7 2 15 -8 8 -11 15 -25 15 -30z m70 -1 c-7 -9 -15 -13 -17 -11 -7 7 7
26 19 26 6 0 6 -6 -2 -15z m-1556 -1 c24 -9 1 -33 -24 -27 -23 6 -26 19 -7 26
6 3 13 6 14 6 1 1 9 -2 17 -5z m-119 -24 c-10 -11 -20 -18 -23 -15 -7 6 18 35
31 35 5 0 2 -9 -8 -20z m1717 -7 c-5 -10 -7 -24 -5 -30 3 -7 0 -13 -6 -13 -15
0 -14 33 1 48 17 17 20 15 10 -5z m-42 -7 c0 -8 -4 -18 -10 -21 -5 -3 -10 3
-10 14 0 12 5 21 10 21 6 0 10 -6 10 -14z m-1503 -28 c-3 -8 -6 -5 -6 6 -1 11
2 17 5 13 3 -3 4 -12 1 -19z m1623 -4 c0 -2 -9 -4 -20 -4 -11 0 -20 4 -20 9 0
5 9 7 20 4 11 -3 20 -7 20 -9z m-146 -73 c2 -34 0 -64 -4 -66 -9 -6 -30 113
-23 131 11 29 24 -2 27 -65z m98 4 c-4 -7 -22 -25 -41 -41 l-34 -28 8 25 c4
13 11 25 15 27 4 2 5 13 2 25 -5 21 -5 21 12 4 10 -9 22 -14 28 -11 5 3 0 13
-11 21 -12 8 -19 19 -15 24 9 15 45 -31 36 -46z m-1662 13 c0 -5 -11 -8 -25
-8 -14 0 -25 3 -25 8 0 4 11 7 25 7 14 0 25 -3 25 -7z m378 -23 c-2 -3 -20 -7
-39 -10 l-34 -5 35 14 c32 12 50 13 38 1z m822 -41 c74 -13 74 -13 -55 -6 -71
4 -232 7 -357 7 -125 0 -225 1 -223 4 3 2 76 7 162 11 186 9 368 3 473 -16z
m-672 -11 c-10 -2 -28 -2 -40 0 -13 2 -5 4 17 4 22 1 32 -1 23 -4z m970 -29
c36 -5 41 -17 15 -34 -13 -8 -14 -13 -5 -16 14 -7 16 -50 2 -59 -6 -3 -10 4
-10 18 0 30 -22 50 -83 77 -26 12 -47 23 -47 25 0 4 61 -1 128 -11z m69 -16
c-3 -8 -6 -5 -6 6 -1 11 2 17 5 13 3 -3 4 -12 1 -19z m-1567 -38 c0 -5 -4 -10
-10 -10 -5 0 -10 5 -10 10 0 6 5 10 10 10 6 0 10 -4 10 -10z m910 -9 c13 -26
13 -31 -4 -25 -16 6 -29 44 -15 44 4 0 13 -9 19 -19z m-940 0 c0 -10 -42 -23
-49 -15 -7 6 20 24 37 24 6 0 12 -4 12 -9z m870 -5 c0 -3 -4 -8 -10 -11 -5 -3
-10 -1 -10 4 0 6 5 11 10 11 6 0 10 -2 10 -4z m943 -23 c4 -24 3 -25 -7 -11
-8 11 -20 15 -33 12 -11 -3 -24 -1 -27 4 -3 6 2 8 13 5 10 -3 22 0 25 6 12 19
23 12 29 -16z m-1693 -33 c0 -13 -7 -20 -19 -20 -10 0 -33 -3 -50 -6 -20 -4
-31 -3 -31 5 0 6 16 11 35 11 22 0 38 6 41 15 9 22 24 18 24 -5z m1328 -42
c-5 -45 -13 -67 -22 -57 -8 10 7 118 16 113 6 -4 8 -29 6 -56z m257 53 c3 -6
-11 -11 -32 -13 -44 -4 -54 -23 -17 -32 34 -9 27 -16 -9 -9 -22 4 -27 10 -25
27 3 19 16 26 70 35 4 0 9 -3 13 -8z m-305 -31 c0 -16 -4 -30 -10 -30 -11 0
-14 43 -3 53 11 12 13 8 13 -23z m-1111 -71 c1 -20 4 -39 8 -43 8 -7 34 -148
29 -153 -1 -2 -14 14 -27 35 -22 33 -25 49 -26 137 -1 62 2 92 7 80 5 -11 9
-36 9 -56z m-154 51 c3 -5 -1 -10 -9 -10 -9 0 -16 5 -16 10 0 6 4 10 9 10 6 0
13 -4 16 -10z m-325 -21 c0 -5 -4 -9 -10 -9 -5 0 -10 7 -10 16 0 8 5 12 10 9
6 -3 10 -10 10 -16z m215 11 c-3 -5 -22 -10 -41 -10 -19 0 -34 -4 -34 -10 0
-5 -5 -10 -11 -10 -6 0 -9 6 -7 13 3 6 24 15 49 18 24 3 45 7 47 7 2 1 0 -2
-3 -8z m172 -67 c-2 -16 -4 -5 -4 22 0 28 2 40 4 28 2 -13 2 -35 0 -50z m1350
35 c-3 -7 -5 -2 -5 12 0 14 2 19 5 13 2 -7 2 -19 0 -25z m98 22 c3 -5 1 -10
-4 -10 -6 0 -11 5 -11 10 0 6 2 10 4 10 3 0 8 -4 11 -10z m93 -7 c-5 -26 -34
-28 -41 -3 -4 16 0 20 20 20 18 0 24 -5 21 -17z m-1681 1 c-3 -3 -12 -4 -19
-1 -8 3 -5 6 6 6 11 1 17 -2 13 -5z m282 -59 c-1 -35 -2 -37 -9 -15 -4 14 -8
39 -9 55 0 23 2 26 9 15 5 -8 9 -33 9 -55z m1461 55 c0 -5 -4 -10 -10 -10 -5
0 -10 5 -10 10 0 6 5 10 10 10 6 0 10 -4 10 -10z m-455 -34 c29 -28 35 -40 30
-58 -5 -17 -4 -19 4 -8 5 8 13 12 16 8 9 -8 -22 -116 -41 -142 -16 -23 -19 -4
-4 23 6 13 4 36 -8 75 -19 63 -37 76 -26 20 5 -28 4 -35 -6 -29 -9 5 -11 23
-7 56 3 27 3 49 -1 49 -4 0 -8 9 -9 20 -2 28 10 25 52 -14z m-1365 -1 c0 -8
-4 -15 -8 -15 -5 0 -9 7 -9 15 0 8 4 15 9 15 4 0 8 -7 8 -15z m103 5 c7 0 4
-7 -6 -14 -14 -11 -24 -11 -48 -2 -30 11 -30 11 -7 17 13 4 29 5 36 3 8 -2 19
-4 25 -4z m57 0 c0 -5 -7 -10 -16 -10 -8 0 -12 5 -9 10 3 6 10 10 16 10 5 0 9
-4 9 -10z m27 -22 c-3 -7 -5 -2 -5 12 0 14 2 19 5 13 2 -7 2 -19 0 -25z m1558
12 c3 -5 -3 -10 -15 -10 -12 0 -18 5 -15 10 3 6 10 10 15 10 5 0 12 -4 15 -10z
m-1542 -63 c39 4 80 -23 57 -37 -19 -12 -16 -71 5 -104 16 -25 16 -26 -1 -26
-9 0 -14 3 -11 7 4 3 1 13 -7 22 -22 26 -27 65 -11 88 18 26 11 33 -36 33 -39
0 -54 17 -41 48 6 14 8 12 10 -8 3 -23 7 -25 35 -23z m-67 26 c-7 -7 -77 -5
-85 3 -2 2 17 4 44 4 27 0 45 -3 41 -7z m954 -15 c0 -19 -2 -20 -10 -8 -13 19
-13 30 0 30 6 0 10 -10 10 -22z m-1080 8 c0 -3 -4 -8 -10 -11 -5 -3 -10 -1
-10 4 0 6 5 11 10 11 6 0 10 -2 10 -4z m1529 1 c-28 -21 -59 -36 -59 -29 0 9
37 30 54 31 5 1 7 0 5 -2z m146 -26 c3 -5 1 -12 -5 -16 -5 -3 -10 1 -10 9 0
18 6 21 15 7z m-1312 -31 c3 -11 1 -18 -4 -14 -5 3 -9 12 -9 20 0 20 7 17 13
-6z m-493 0 c-14 -4 -34 -8 -45 -8 l-20 -1 20 9 c11 5 31 8 45 8 l25 0 -25 -8z
m1544 -71 c-23 -25 -30 -16 -10 13 9 12 17 32 17 43 1 12 4 9 6 -8 3 -18 -2
-36 -13 -48z m-1404 -2 c65 -62 83 -84 108 -126 27 -47 4 -29 -28 22 -19 28
-45 61 -59 72 -14 11 -35 29 -47 41 -12 12 -29 24 -38 27 -16 6 -23 27 -8 27
4 0 36 -28 72 -63z m51 46 c13 -17 13 -17 -6 -3 -11 8 -22 16 -24 17 -2 2 0 3
6 3 6 0 17 -8 24 -17z m1452 -20 c3 -5 -1 -14 -9 -21 -12 -11 -14 -9 -14 8 0
20 14 27 23 13z m-63 -23 c0 -11 -4 -20 -9 -20 -5 0 -7 9 -4 20 3 11 7 20 9
20 2 0 4 -9 4 -20z m-1545 0 c-3 -5 -21 -9 -38 -9 l-32 1 30 8 c43 11 47 11
40 0z m50 0 c8 -13 -5 -13 -25 0 -13 8 -13 10 2 10 9 0 20 -4 23 -10z m165
-25 c7 -9 8 -15 2 -15 -5 0 -12 7 -16 15 -3 8 -4 15 -2 15 2 0 9 -7 16 -15z
m-240 -15 c0 -5 -7 -10 -15 -10 -8 0 -15 5 -15 10 0 6 7 10 15 10 8 0 15 -4
15 -10z m29 -33 c6 -8 8 -17 4 -21 -4 -4 0 -4 10 0 19 7 23 -6 6 -23 -9 -9
-17 -6 -30 12 -29 36 -19 66 10 32z m281 -51 c0 -6 -7 -1 -15 10 -8 10 -15 23
-15 28 0 6 7 1 15 -10 8 -10 15 -23 15 -28z m-200 3 c0 -5 -4 -9 -10 -9 -5 0
-10 7 -10 16 0 8 5 12 10 9 6 -3 10 -10 10 -16z m298 -30 c-3 -8 -7 -3 -11 10
-4 17 -3 21 5 13 5 -5 8 -16 6 -23z m-215 0 c-7 -7 -19 -8 -30 -4 -16 7 -15 9
7 15 30 8 38 4 23 -11z m171 -55 c9 -24 2 -26 -12 -4 -7 11 -8 20 -3 20 5 0
12 -7 15 -16z m966 12 c0 -2 -8 -10 -17 -17 -16 -13 -17 -12 -4 4 13 16 21 21
21 13z m-980 -69 c28 -33 31 -39 18 -50 -9 -7 -21 -21 -27 -32 -10 -17 -11
-13 -6 25 6 42 5 44 -9 25 -15 -20 -15 -20 -16 3 0 12 5 22 11 22 8 0 8 4 -1
14 -6 8 -19 12 -28 9 -13 -4 -14 -3 -3 5 8 5 10 15 6 22 -15 24 21 -4 55 -43z
m1030 33 c0 -5 -20 -32 -45 -60 -25 -28 -43 -55 -40 -59 8 -13 -35 -46 -61
-46 -13 -1 -24 1 -24 3 0 2 31 33 69 69 39 35 73 73 76 83 6 20 25 28 25 10z
m100 -24 c0 -2 -8 -10 -17 -17 -16 -13 -17 -12 -4 4 13 16 21 21 21 13z m-959
-43 c13 -16 12 -17 -3 -4 -17 13 -22 21 -14 21 2 0 10 -8 17 -17z m849 -2 c0
-12 -26 -32 -33 -25 -6 7 14 33 26 34 4 0 7 -4 7 -9z m-760 -47 c0 -3 -7 -1
-15 6 -8 7 -15 17 -15 22 0 5 7 3 15 -6 8 -8 15 -18 15 -22z m-87 0 c27 -36
16 -38 -17 -4 -16 17 -22 30 -14 30 7 0 21 -12 31 -26z m172 -32 c-1 -1 -16 1
-33 4 -22 5 -32 12 -32 25 0 17 2 17 34 -4 18 -12 33 -23 31 -25z m-120 28 c3
-5 1 -10 -4 -10 -6 0 -11 5 -11 10 0 6 2 10 4 10 3 0 8 -4 11 -10z m783 -2
c-3 -7 -13 -15 -24 -17 -16 -3 -17 -1 -5 13 16 19 34 21 29 4z m-48 -38 c0 -5
-5 -10 -11 -10 -5 0 -7 5 -4 10 3 6 8 10 11 10 2 0 4 -4 4 -10z m-113 -16 c-3
-3 -12 -4 -19 -1 -8 3 -5 6 6 6 11 1 17 -2 13 -5z m-37 -12 c0 -9 -68 -32 -91
-31 -8 0 6 8 31 19 53 21 60 23 60 12z"/>
<path d="M4080 4681 c0 -5 5 -13 10 -16 6 -3 10 -2 10 4 0 5 -4 13 -10 16 -5
3 -10 2 -10 -4z"/>
<path d="M3710 3325 c-7 -8 -8 -15 -2 -15 5 0 15 7 22 15 7 8 8 15 2 15 -5 0
-15 -7 -22 -15z"/>
<path d="M4170 4793 c0 -10 40 -36 46 -30 3 2 -7 12 -21 21 -14 9 -25 13 -25
9z"/>
<path d="M2449 4769 c-7 -13 -18 -30 -26 -37 -23 -24 -63 -79 -63 -88 0 -14
91 89 101 115 13 32 4 39 -12 10z"/>
<path d="M2333 4766 c3 -7 0 -19 -6 -26 -10 -10 -7 -10 10 -1 22 11 22 41 1
41 -6 0 -8 -6 -5 -14z"/>
<path d="M2390 4755 c-24 -26 -21 -47 4 -26 11 10 29 51 22 51 -1 0 -13 -11
-26 -25z"/>
<path d="M3110 4768 c-19 -5 -39 -13 -44 -18 -5 -5 10 -3 32 3 22 7 44 16 48
20 8 8 10 8 -36 -5z"/>
<path d="M3900 4770 c-11 -8 -9 -9 11 -5 23 6 27 3 31 -19 4 -17 1 -26 -8 -26
-7 0 -16 -4 -19 -10 -3 -5 0 -8 7 -7 7 2 10 2 5 0 -4 -3 -4 -10 0 -16 4 -7 -4
-4 -17 5 -65 46 -160 87 -160 69 0 -6 5 -11 11 -11 21 0 113 -51 135 -75 12
-13 30 -25 40 -27 17 -3 19 4 19 62 0 57 -2 65 -20 68 -11 1 -27 -3 -35 -8z"/>
<path d="M2783 4753 c9 -2 23 -2 30 0 6 3 -1 5 -18 5 -16 0 -22 -2 -12 -5z"/>
<path d="M2709 4710 c-5 -45 0 -82 11 -75 5 3 11 1 15 -5 3 -5 11 -10 17 -10
6 0 4 8 -6 19 -9 10 -20 38 -24 62 l-8 44 -5 -35z"/>
<path d="M2746 4731 c-3 -5 10 -11 30 -13 40 -5 55 7 21 16 -31 8 -45 7 -51
-3z"/>
<path d="M4190 4721 c0 -5 7 -11 15 -15 8 -3 15 -10 15 -17 0 -6 -7 -9 -15 -5
-12 4 -15 -4 -15 -44 0 -28 3 -50 8 -50 16 1 42 28 39 41 -2 8 -2 11 0 6 3 -4
9 -4 14 -1 6 4 6 11 -1 19 -9 11 -7 12 9 8 11 -3 19 -10 18 -15 -1 -6 4 -13
11 -15 6 -3 12 0 12 6 0 16 -39 53 -49 46 -5 -2 -16 6 -25 20 -16 25 -36 33
-36 16z"/>
<path d="M2311 4691 c-11 -15 -18 -31 -14 -34 3 -4 0 -13 -6 -21 -7 -8 -10
-19 -7 -25 3 -5 -8 -39 -25 -75 -45 -96 -30 -102 24 -10 45 77 77 152 77 180
0 24 -28 15 -49 -15z"/>
<path d="M2273 4688 c-10 -13 -18 -41 -30 -103 -6 -32 5 -31 12 1 2 11 11 40
19 67 16 49 15 56 -1 35z"/>
<path d="M2964 4678 l-19 -21 28 18 c28 18 33 25 19 25 -5 0 -17 -10 -28 -22z"/>
<path d="M2367 4609 c-28 -32 -35 -49 -33 -71 2 -16 -2 -42 -10 -57 -7 -14
-15 -43 -18 -62 -5 -42 8 -73 17 -40 3 12 13 21 24 21 11 0 25 16 37 43 l20
42 9 -34 c5 -23 5 -42 -3 -55 -9 -17 -7 -31 10 -69 12 -26 25 -47 30 -47 13 0
13 27 0 35 -5 3 -10 11 -10 16 0 6 5 7 11 3 8 -4 9 1 3 17 -11 35 -8 56 14 79
18 19 24 20 58 11 26 -7 42 -7 49 0 15 15 -12 28 -55 24 -45 -3 -64 -13 -74
-40 -8 -19 -8 -19 -17 4 -6 14 -8 30 -5 38 3 7 1 15 -5 18 -5 4 -3 13 6 21 17
17 20 54 5 54 -5 0 -10 -9 -10 -19 0 -10 -6 -21 -13 -24 -8 -3 -31 -30 -51
-61 -20 -31 -39 -56 -41 -56 -14 0 25 77 51 100 40 35 62 76 60 114 -2 43 -19
42 -59 -5z m28 -6 c-23 -35 -45 -57 -50 -51 -3 2 9 23 26 47 34 46 53 49 24 4z
m39 -235 c3 -16 2 -28 -3 -28 -11 0 -22 40 -15 52 8 12 10 9 18 -24z"/>
<path d="M4560 4628 c1 -49 23 -115 62 -186 22 -40 42 -71 44 -69 6 5 -10 109
-25 164 -20 74 -81 143 -81 91z"/>
<path d="M4370 4631 c0 -6 -11 -22 -25 -37 -14 -15 -25 -31 -25 -35 0 -5 -6
-9 -13 -9 -8 0 -22 -9 -32 -20 -22 -25 -22 -25 45 3 54 21 55 23 58 65 2 23 1
42 -2 42 -3 0 -6 -4 -6 -9z m-10 -61 c0 -5 -7 -10 -16 -10 -8 0 -12 5 -9 10 3
6 10 10 16 10 5 0 9 -4 9 -10z"/>
<path d="M2805 4610 c-3 -5 -1 -10 4 -10 6 0 11 5 11 10 0 6 -2 10 -4 10 -3 0
-8 -4 -11 -10z"/>
<path d="M4284 4597 c-12 -12 -27 -33 -34 -47 l-13 -25 23 20 c28 25 64 75 53
74 -4 0 -18 -10 -29 -22z"/>
<path d="M2964 4588 l-19 -21 28 18 c28 18 33 25 19 25 -5 0 -17 -10 -28 -22z"/>
<path d="M4090 4591 c0 -25 26 -47 33 -28 3 8 -3 21 -14 30 -18 16 -19 16 -19
-2z"/>
<path d="M2706 4591 c-3 -5 0 -14 8 -20 11 -9 15 -8 20 5 3 8 6 18 6 20 0 8
-29 4 -34 -5z"/>
<path d="M3024 4530 c-20 -8 -42 -30 -30 -30 13 0 56 24 56 32 0 9 1 9 -26 -2z"/>
<path d="M2291 4502 c-6 -12 -6 -23 0 -33 9 -12 10 -12 6 1 -2 8 0 23 5 33 5
9 6 17 4 17 -3 0 -10 -8 -15 -18z"/>
<path d="M2446 4504 c-8 -22 -8 -39 2 -30 4 4 7 11 7 14 0 4 4 13 8 20 5 6 4
12 -1 12 -6 0 -13 -7 -16 -16z"/>
<path d="M2680 4435 c0 -16 22 -45 31 -40 15 10 11 23 -11 35 -11 6 -20 8 -20
5z"/>
<path d="M4280 4350 c0 -5 9 -10 21 -10 11 0 17 5 14 10 -3 6 -13 10 -21 10
-8 0 -14 -4 -14 -10z"/>
<path d="M2395 4320 c-3 -5 -1 -10 4 -10 6 0 11 5 11 10 0 6 -2 10 -4 10 -3 0
-8 -4 -11 -10z"/>
<path d="M3062 4323 c-15 -6 -6 -23 12 -23 7 0 13 7 13 15 0 16 -4 17 -25 8z"/>
<path d="M2410 4280 c0 -5 5 -10 10 -10 18 0 11 -17 -12 -27 -15 -6 -18 -12
-10 -17 7 -4 12 -2 12 3 0 6 5 11 11 11 7 0 9 -11 5 -27 -5 -28 -5 -28 9 2 19
40 18 48 -5 63 -12 7 -20 8 -20 2z"/>
<path d="M3150 4250 c0 -5 -7 -10 -15 -10 -8 0 -15 -5 -15 -10 0 -11 14 -5 50
20 13 8 13 10 -2 10 -10 0 -18 -4 -18 -10z"/>
<path d="M3290 4250 c0 -5 5 -10 11 -10 5 0 7 5 4 10 -3 6 -8 10 -11 10 -2 0
-4 -4 -4 -10z"/>
<path d="M3218 4243 c7 -3 16 -2 19 1 4 3 -2 6 -13 5 -11 0 -14 -3 -6 -6z"/>
<path d="M3040 4229 c0 -5 5 -7 10 -4 6 3 10 8 10 11 0 2 -4 4 -10 4 -5 0 -10
-5 -10 -11z"/>
<path d="M2453 4194 c-3 -8 -1 -20 6 -27 8 -8 11 -4 11 16 0 30 -7 35 -17 11z"/>
<path d="M2288 4172 c-7 -27 2 -73 13 -66 11 7 11 55 0 72 -6 11 -9 9 -13 -6z"/>
<path d="M4330 4160 c0 -5 9 -10 19 -10 11 0 23 5 26 10 4 6 -5 10 -19 10 -14
0 -26 -4 -26 -10z"/>
<path d="M2438 4134 c4 -20 2 -25 -8 -19 -9 5 -11 -3 -8 -36 2 -31 -1 -43 -9
-41 -15 2 -18 -14 -4 -22 12 -8 44 31 36 43 -3 6 0 11 8 11 12 0 13 7 7 36
-10 44 -30 69 -22 28z"/>
<path d="M2401 4134 c0 -11 3 -14 6 -6 3 7 2 16 -1 19 -3 4 -6 -2 -5 -13z"/>
<path d="M2595 4130 c3 -5 13 -10 21 -10 8 0 12 5 9 10 -3 6 -13 10 -21 10 -8
0 -12 -4 -9 -10z"/>
<path d="M2646 4118 c7 -11 34 -10 34 1 0 6 -9 9 -19 8 -11 0 -17 -5 -15 -9z"/>
<path d="M4537 4018 c-66 -51 -86 -82 -24 -39 39 27 96 81 86 81 -3 0 -31 -19
-62 -42z"/>
<path d="M2384 3996 c-8 -22 3 -33 18 -18 9 9 9 15 0 24 -9 9 -13 7 -18 -6z"/>
<path d="M4151 3894 c0 -11 3 -14 6 -6 3 7 2 16 -1 19 -3 4 -6 -2 -5 -13z"/>
<path d="M5510 3773 c0 -8 83 -43 102 -43 4 0 5 6 2 14 -3 7 -20 16 -37 19
-18 3 -40 8 -49 12 -10 4 -18 3 -18 -2z"/>
<path d="M4152 3758 c-5 -7 -17 -27 -25 -44 -20 -39 -4 -68 34 -62 19 2 25 10
27 37 6 63 -12 98 -36 69z"/>
<path d="M5196 3739 c-33 -26 -33 -35 5 -70 17 -16 28 -33 25 -38 -4 -5 0 -12
6 -14 19 -8 -11 -27 -30 -19 -10 3 -13 1 -8 -6 9 -15 3 -15 -47 0 -35 11 -41
10 -53 -7 -31 -42 -6 -133 44 -158 27 -13 32 -13 46 1 9 9 16 13 16 10 0 -4
-7 -14 -16 -22 -14 -14 -14 -18 0 -31 8 -8 18 -15 23 -15 4 0 14 -9 21 -20 12
-20 12 -20 -21 0 -38 24 -51 25 -43 5 3 -8 0 -15 -7 -15 -7 0 -28 -41 -47 -91
-33 -86 -38 -93 -75 -109 -37 -16 -88 -60 -70 -60 5 0 -3 -12 -17 -27 -26 -29
-39 -54 -43 -88 -2 -12 -19 -54 -39 -95 -20 -40 -34 -76 -31 -78 7 -7 7 -7 47
73 67 133 83 159 135 214 42 45 52 52 53 35 0 -11 -5 -25 -11 -31 -9 -9 -9
-20 2 -44 10 -25 10 -34 1 -37 -7 -2 -12 -10 -12 -17 0 -8 -8 -18 -17 -24 -16
-9 -18 -24 -16 -133 2 -68 -2 -136 -7 -153 -7 -22 -9 -5 -6 69 3 63 1 95 -5
89 -12 -12 -17 -185 -6 -234 6 -31 5 -37 -12 -42 -16 -4 -24 5 -40 43 -12 27
-21 58 -21 69 0 11 -4 23 -10 26 -19 12 -10 -44 16 -94 14 -29 24 -62 22 -74
-2 -17 5 -26 36 -39 46 -21 47 -21 43 -6 -3 18 -29 37 -49 38 -10 0 -18 4 -18
8 0 18 14 21 34 7 11 -8 25 -15 31 -15 6 0 10 54 11 147 2 177 5 205 23 211 8
3 11 0 8 -5 -3 -5 1 -42 9 -83 7 -41 13 -109 13 -151 -1 -49 4 -87 14 -105 8
-16 12 -36 9 -44 -3 -12 -1 -11 13 2 15 14 16 20 6 32 -7 9 -10 23 -7 32 6 15
4 15 -10 3 -16 -13 -16 -12 -4 11 7 14 18 32 25 40 14 16 33 100 20 88 -5 -4
-15 -2 -23 5 -13 10 -14 8 -8 -11 3 -12 8 -31 11 -41 3 -11 2 -22 -4 -25 -11
-7 -26 69 -16 84 4 6 14 9 22 5 12 -4 13 -2 6 7 -15 19 -26 58 -16 58 4 0 14
-13 21 -30 8 -16 18 -30 24 -30 6 0 17 -8 24 -17 13 -17 13 -17 14 0 0 11 8
17 21 17 19 0 17 5 -20 45 -43 46 -50 61 -27 52 7 -3 21 3 30 14 15 18 15 22
0 51 -12 23 -13 36 -6 52 6 11 13 34 17 50 5 23 3 27 -9 23 -10 -4 -16 -1 -16
9 0 8 5 12 10 9 6 -3 10 -1 10 4 0 6 -7 11 -15 11 -27 0 -16 31 15 41 16 6 28
14 25 19 -3 4 4 10 14 13 15 3 18 11 15 28 -5 21 -4 22 6 7 6 -10 16 -18 23
-18 7 0 32 -16 57 -35 25 -19 62 -46 83 -60 45 -31 50 -52 5 -25 -18 11 -36
20 -40 20 -6 0 28 -36 71 -74 23 -21 14 -23 112 25 9 4 33 3 52 -3 19 -6 44
-7 54 -3 15 7 14 9 -11 14 -41 8 -41 22 0 53 30 22 40 25 61 17 27 -10 63 -4
63 11 0 5 -6 10 -12 12 -9 3 -8 9 5 22 32 32 15 36 -22 5 -21 -17 -22 -22 -10
-30 9 -6 3 -7 -18 -3 -42 8 -83 -2 -83 -21 0 -8 -7 -15 -15 -15 -8 0 -15 -4
-15 -10 0 -5 -16 -12 -35 -16 -29 -5 -38 -2 -55 17 -23 28 -26 55 -6 62 12 5
13 11 3 36 -9 26 -22 34 -77 52 -79 26 -159 67 -182 94 -23 27 -22 38 2 25 24
-13 221 -50 266 -50 43 0 113 26 141 52 30 28 30 48 1 21 -13 -11 -34 -23 -47
-26 -21 -5 -20 -3 9 22 23 19 30 30 22 35 -15 9 -16 26 -2 26 6 0 10 -7 10
-15 0 -8 5 -15 10 -15 31 0 -8 54 -59 80 l-23 12 28 29 c20 21 23 29 12 29 -9
0 -21 -7 -28 -15 -7 -8 -20 -15 -29 -15 -9 0 -32 -13 -51 -30 -42 -35 -56 -37
-64 -7 -3 12 -22 32 -41 45 l-36 23 55 46 c92 75 67 79 -32 6 -18 -14 -34 -23
-36 -22 -1 2 -10 16 -19 31 -10 15 -30 34 -47 43 l-29 15 30 32 c16 18 29 37
29 43 0 6 -3 6 -8 -1 -4 -6 -25 -14 -47 -18 -23 -4 -35 -3 -27 2 14 10 7 37
-16 65 -20 22 -33 22 -66 -4z m174 -209 c0 -19 -17 -36 -27 -26 -3 3 -2 17 1
31 7 28 26 25 26 -5z m-75 -50 c3 -5 1 -10 -4 -10 -6 0 -11 5 -11 10 0 6 2 10
4 10 3 0 8 -4 11 -10z m-142 -17 c-6 -16 -5 -16 10 -4 10 8 17 9 17 3 0 -19
-17 -23 -47 -11 l-28 12 25 7 c14 5 26 8 27 9 1 1 -1 -7 -4 -16z m107 -6 c0
-2 -10 -12 -22 -23 l-23 -19 19 23 c18 21 26 27 26 19z m230 -67 c0 -5 -4 -10
-10 -10 -5 0 -10 5 -10 10 0 6 5 10 10 10 6 0 10 -4 10 -10z m-220 -54 c0 -3
-4 -8 -10 -11 -5 -3 -10 -1 -10 4 0 6 5 11 10 11 6 0 10 -2 10 -4z m-61 -78
c11 -21 19 -38 17 -38 -7 0 -76 94 -76 104 0 16 36 -24 59 -66z m48 -10 c-3
-7 -5 -2 -5 12 0 14 2 19 5 13 2 -7 2 -19 0 -25z m165 -69 c38 -21 11 -18 -52
5 -35 13 -66 29 -68 35 -4 11 73 -15 120 -40z m-102 -14 c0 -14 -4 -25 -10
-25 -5 0 -10 11 -10 25 0 14 5 25 10 25 6 0 10 -11 10 -25z m170 -15 c8 -5 11
-10 5 -10 -5 0 -17 5 -25 10 -8 5 -10 10 -5 10 6 0 17 -5 25 -10z m-360 -102
c0 -50 -2 -89 -5 -86 -9 8 -11 178 -2 178 4 0 7 -41 7 -92z m-110 57 c-13 -14
-26 -23 -28 -20 -7 7 29 45 41 45 6 0 0 -11 -13 -25z m80 3 c0 -19 -18 -44
-25 -36 -4 3 0 15 7 27 15 24 18 26 18 9z m-30 -150 c0 -19 -18 -44 -25 -36
-4 3 0 15 7 27 15 24 18 26 18 9z m112 -110 c-4 -15 -22 -27 -22 -14 0 2 -2
11 -5 18 -4 9 2 14 13 14 13 0 18 -6 14 -18z"/>
<path d="M5655 3730 c3 -5 11 -10 16 -10 6 0 7 5 4 10 -3 6 -11 10 -16 10 -6
0 -7 -4 -4 -10z"/>
<path d="M5456 3686 c10 -8 21 -12 24 -10 5 6 -21 24 -34 24 -6 0 -1 -6 10
-14z"/>
<path d="M5677 3689 c7 -7 15 -10 18 -7 3 3 -2 9 -12 12 -14 6 -15 5 -6 -5z"/>
<path d="M5690 3665 c0 -4 24 -38 54 -74 29 -36 59 -77 66 -90 10 -19 14 -21
21 -10 14 22 11 49 -5 43 -9 -3 -25 11 -44 38 -32 46 -92 107 -92 93z"/>
<path d="M2310 3640 c0 -5 7 -10 15 -10 9 0 37 -20 62 -45 45 -42 74 -55 40
-17 -10 10 -17 23 -17 29 0 6 -19 21 -43 32 -49 24 -57 25 -57 11z"/>
<path d="M4311 3635 c-59 -33 -110 -96 -173 -216 -73 -139 -106 -225 -90 -241
6 -6 12 4 17 29 10 55 54 164 76 189 11 11 19 25 19 30 0 21 83 130 133 176
55 50 57 54 18 33z"/>
<path d="M5430 3643 c0 -4 5 -15 10 -23 8 -13 10 -13 10 2 0 9 -4 20 -10 23
-5 3 -10 3 -10 -2z"/>
<path d="M5778 3611 c18 -18 32 -41 32 -52 0 -20 15 -26 25 -9 9 15 -25 59
-59 77 l-30 16 32 -32z"/>
<path d="M2270 3622 c0 -5 -20 -15 -45 -22 -47 -13 -51 -19 -18 -25 10 -2 20
-4 23 -5 3 0 -11 -8 -30 -16 -22 -9 -50 -13 -75 -10 -29 4 -35 3 -20 -3 11 -5
14 -10 7 -10 -7 -1 -10 -6 -6 -12 5 -8 8 -8 13 0 4 6 18 9 31 6 13 -2 28 -1
34 4 19 15 81 18 72 3 -3 -5 -19 -7 -36 -4 -33 5 -41 -11 -12 -27 16 -10 16
-10 -1 -11 -10 0 -27 5 -38 11 -21 11 -59 4 -59 -12 0 -6 8 -6 20 1 22 12 27
1 8 -19 -11 -11 -8 -12 16 -7 25 6 28 5 17 -7 -9 -12 -8 -16 4 -21 8 -3 15 -1
15 4 0 6 7 10 15 10 8 0 15 -4 15 -10 0 -5 -4 -10 -10 -10 -18 0 -10 -22 9
-27 11 -3 22 -12 25 -20 3 -8 -23 5 -57 30 -35 24 -85 52 -111 62 -45 17 -48
17 -64 0 -16 -17 -16 -17 1 -11 22 7 64 -13 96 -48 13 -14 27 -24 30 -22 3 1
19 -11 35 -26 27 -28 28 -29 7 -35 -12 -3 -21 -10 -21 -15 0 -5 -9 -6 -20 -3
-14 4 -20 2 -20 -8 0 -8 -7 -28 -16 -43 -15 -27 -15 -27 -9 -4 32 123 4 189
-80 190 -25 0 -74 -50 -138 -140 -26 -36 -60 -84 -78 -108 -17 -24 -28 -50
-25 -58 3 -8 2 -14 -3 -14 -10 0 -36 -58 -29 -65 7 -7 99 -27 125 -27 13 0 20
-5 17 -10 -4 -6 1 -8 14 -4 11 4 23 2 27 -3 4 -7 -1 -8 -11 -4 -11 4 -15 3
-11 -5 4 -6 28 -18 52 -28 25 -9 43 -19 41 -21 -2 -3 -58 14 -123 36 -65 23
-136 42 -157 44 -39 2 -39 2 -52 -47 -8 -32 -10 -56 -4 -67 8 -13 2 -23 -28
-45 -57 -43 -64 -52 -57 -74 4 -13 -1 -25 -14 -37 -12 -10 -21 -23 -21 -30 0
-7 -17 -24 -38 -37 -62 -39 -105 -94 -98 -126 5 -27 -38 -122 -88 -193 -16
-23 -18 -51 -21 -213 -2 -120 -7 -190 -14 -197 -18 -18 -13 -27 14 -27 15 0
25 -6 25 -14 0 -8 21 -32 47 -54 42 -36 47 -45 49 -87 3 -57 11 -66 32 -40 10
11 30 28 45 38 15 10 25 22 22 27 -3 5 0 12 6 16 8 5 9 3 4 -6 -5 -8 -3 -11 6
-8 8 3 13 10 12 15 -1 5 18 19 43 31 24 12 65 32 90 45 53 26 60 33 44 52 -7
8 -7 15 -1 19 5 4 16 -3 24 -15 10 -13 17 -17 22 -9 4 6 1 18 -7 27 -10 13
-10 15 0 9 7 -4 18 -3 25 2 7 5 29 12 50 16 21 4 41 14 44 22 3 7 9 14 15 14
5 0 6 -4 3 -10 -3 -5 -1 -10 4 -10 6 0 11 7 11 16 0 10 5 14 15 10 8 -3 21 -8
28 -11 7 -3 22 3 33 13 15 14 26 17 44 10 13 -5 29 -7 36 -4 7 3 15 1 18 -5 2
-5 3 -4 2 2 -2 12 -17 17 -69 23 -15 2 -30 6 -34 10 -3 3 -17 6 -31 6 -17 0
-23 4 -18 15 5 13 3 13 -17 1 -12 -8 -31 -12 -42 -10 -11 2 -32 5 -46 6 -20 2
-25 6 -21 21 4 14 7 16 13 5 7 -10 9 -9 9 4 0 10 3 17 8 17 4 -1 22 -1 40 0
30 1 32 3 18 16 -15 16 -46 10 -46 -8 0 -6 -10 -1 -22 11 -17 16 -19 25 -11
33 16 16 5 39 -14 32 -12 -5 -14 -3 -8 7 6 10 4 12 -8 7 -10 -3 -17 -2 -17 3
0 5 -15 14 -32 19 -23 6 -27 9 -12 10 28 1 168 -55 217 -87 20 -14 39 -23 41
-21 8 8 -7 138 -16 133 -5 -3 -6 7 -3 23 5 21 4 24 -4 13 -6 -8 -11 -10 -11
-5 0 6 5 16 10 21 7 7 6 16 -4 29 -13 18 -15 18 -72 -5 -33 -12 -77 -31 -99
-41 -22 -9 -48 -20 -58 -23 -11 -4 -15 -11 -11 -18 4 -9 2 -8 -7 1 -11 11 -11
14 -1 18 7 3 19 11 26 19 8 8 18 14 22 14 4 0 25 8 46 17 42 19 53 38 12 23
-40 -15 -51 -11 -26 9 24 21 28 31 11 31 -11 0 -49 37 -49 47 0 2 13 -3 29
-13 22 -13 34 -14 57 -6 l29 11 -35 -3 c-26 -3 -41 3 -62 24 -21 21 -37 28
-69 28 -22 1 -44 4 -48 8 -7 8 274 -4 342 -15 44 -7 47 -7 47 14 0 25 -23 49
-41 43 -13 -4 -59 37 -59 52 0 6 7 10 16 10 11 0 14 6 9 20 -8 27 -5 26 77
-15 77 -39 102 -41 41 -4 -21 13 -39 27 -41 31 -2 4 -10 8 -18 8 -8 0 -14 7
-14 15 0 8 -5 15 -10 15 -6 0 -15 11 -20 25 -10 25 -30 35 -30 13 0 -6 -3 -9
-6 -5 -4 3 -4 13 0 22 5 15 9 14 33 -3 35 -24 63 -18 31 7 -13 10 -36 23 -53
30 -37 15 -91 57 -60 46 52 -17 76 1 79 60 2 22 35 36 56 25 12 -6 30 -8 40
-5 11 4 20 2 20 -3 0 -5 10 -12 23 -15 141 -32 178 -37 193 -29 12 7 2 11 -37
16 -75 9 -176 46 -126 46 9 0 19 5 22 10 4 6 -9 9 -34 7 -23 -2 -41 0 -41 5 0
4 7 8 15 8 8 0 15 5 15 10 0 6 -4 10 -10 10 -16 0 -11 30 11 70 l22 39 45 -35
c25 -19 52 -34 61 -34 11 1 6 8 -14 23 -52 38 -80 65 -75 70 10 10 60 -5 53
-16 -4 -6 0 -8 10 -4 10 4 29 -7 53 -28 20 -19 41 -32 46 -29 5 4 16 -3 24
-15 21 -29 36 -26 20 4 -19 36 -70 82 -85 77 -8 -3 -11 0 -7 7 4 6 0 11 -10
11 -10 0 -26 8 -37 18 -15 12 -21 14 -24 5 -3 -7 -9 -13 -14 -13 -5 0 -2 12 8
26 l17 26 23 -27 c13 -15 27 -24 31 -20 4 4 -6 18 -22 32 l-29 25 26 26 26 26
28 -30 c15 -16 24 -21 20 -11 -9 23 8 22 33 -3 21 -21 26 -11 10 21 -8 14 -7
19 2 19 7 0 38 -34 68 -75 30 -41 59 -75 63 -75 10 0 3 13 -30 58 -38 51 -5
41 35 -12 12 -16 22 -25 22 -21 0 7 -39 66 -50 75 -3 3 -17 21 -30 40 -13 19
-43 55 -67 80 -32 34 -45 42 -52 32 -6 -11 -11 -10 -25 3 -20 21 -21 32 -1 15
9 -7 19 -10 23 -6 4 4 -5 17 -21 28 -15 11 -27 28 -27 38 0 10 -9 20 -20 23
-11 3 -20 12 -20 21 0 16 14 14 57 -7 18 -8 27 -7 41 6 10 10 23 17 29 17 6 0
13 9 16 20 3 11 1 20 -5 20 -6 0 -8 14 -6 31 4 23 0 34 -16 44 -29 19 -76 29
-76 17z m28 -14 c-2 -6 -10 -14 -16 -16 -7 -2 -10 2 -6 12 7 18 28 22 22 4z
m-19 -57 c13 -11 20 -25 16 -30 -9 -15 -38 -14 -32 2 2 6 -2 20 -11 30 -20 23
-1 22 27 -2z m42 -54 c-17 -17 -24 -1 -9 22 11 18 14 19 16 5 2 -9 -1 -21 -7
-27z m-76 -77 c3 -5 1 -10 -4 -10 -6 0 -11 5 -11 10 0 6 2 10 4 10 3 0 8 -4
11 -10z m-222 -111 c-10 -10 -53 -1 -53 11 0 5 8 6 19 3 10 -3 22 1 27 8 6 11
8 11 12 0 2 -7 0 -17 -5 -22z m266 22 c7 -5 12 -13 10 -18 -2 -6 -17 -2 -34 8
-25 16 -26 19 -10 19 11 0 26 -4 34 -9z m-41 -31 c3 -7 0 -10 -6 -6 -13 8 -44
-3 -37 -14 3 -5 -5 -6 -17 -3 -19 4 -20 3 -8 -6 10 -7 11 -11 3 -11 -7 0 -13
-7 -13 -16 0 -14 3 -14 15 -4 13 10 18 11 28 1 9 -10 8 -16 -8 -27 -11 -8 -19
-17 -17 -19 3 -6 -4 -6 -24 2 -8 3 -20 1 -27 -6 -8 -8 -7 -11 5 -11 27 0 31
-18 9 -41 -11 -12 -27 -37 -36 -55 -9 -19 -18 -34 -20 -34 -6 0 17 64 25 70 3
3 9 12 12 21 5 13 2 16 -13 12 -10 -3 -19 -12 -19 -19 0 -8 -11 -14 -26 -14
l-26 0 22 33 c11 17 29 47 38 65 12 24 21 32 35 28 11 -3 16 0 14 7 -3 7 6 24
19 38 26 27 65 32 72 9z m92 -4 c0 -2 3 -12 6 -21 6 -15 4 -15 -15 -4 -25 16
-27 29 -6 29 8 0 15 -2 15 -4z m-386 -21 c-6 -14 -35 -35 -49 -35 -5 0 46 49
52 50 1 0 0 -7 -3 -15z m293 -21 c-9 -9 -28 6 -21 18 4 6 10 6 17 -1 6 -6 8
-13 4 -17z m-284 -42 c-3 -12 -9 -22 -14 -22 -12 0 -11 7 3 30 15 24 19 21 11
-8z m118 -9 c-8 -15 -10 -15 -11 -2 0 17 10 32 18 25 2 -3 -1 -13 -7 -23z
m-193 -65 c0 -39 -3 -47 -10 -34 -9 15 -3 86 6 86 2 0 4 -23 4 -52z m138 -8
c-19 -24 -24 -38 -20 -57 5 -19 3 -24 -7 -21 -25 8 -20 34 13 75 18 22 35 39
37 37 2 -2 -8 -17 -23 -34z m-185 -17 c-8 -15 -10 -15 -11 -2 0 17 10 32 18
25 2 -3 -1 -13 -7 -23z m239 -18 c7 -9 10 -18 6 -22 -3 -3 -6 -1 -6 6 0 6 -7
11 -16 9 -10 -2 -19 3 -21 10 -6 17 22 15 37 -3z m8 -73 c2 -6 -1 -12 -7 -12
-6 0 -11 5 -11 10 0 6 -5 10 -11 10 -6 0 -9 -7 -5 -15 4 -12 2 -13 -14 -2 -11
6 -20 17 -20 23 0 15 62 3 68 -14z m-378 11 c0 -5 -10 -19 -21 -33 l-21 -25
18 33 c18 32 24 38 24 25z m65 -21 c-3 -3 -11 0 -18 7 -9 10 -8 11 6 5 10 -3
15 -9 12 -12z m137 -55 c4 -7 3 -13 -2 -15 -18 -7 -10 -20 15 -24 13 -3 22 -2
20 2 -6 9 25 23 33 15 3 -3 0 -5 -6 -5 -7 0 -12 -10 -12 -21 0 -16 -5 -20 -19
-16 -12 3 -22 -1 -25 -10 -3 -8 -10 -11 -16 -8 -6 4 -8 11 -4 16 3 6 -2 16
-12 24 -18 13 -18 14 -2 20 10 4 15 11 12 16 -9 16 -19 10 -33 -22 -12 -29
-14 -29 -35 -14 -11 8 -33 20 -48 26 -16 6 -25 15 -22 21 4 6 9 6 13 2 3 -5
22 -16 42 -26 38 -17 36 -18 41 28 1 11 8 14 27 9 14 -4 29 -12 33 -18z m-222
-1 c0 -3 -4 -8 -10 -11 -5 -3 -10 -1 -10 4 0 6 5 11 10 11 6 0 10 -2 10 -4z
m90 -42 c0 -2 -9 -4 -20 -4 -11 0 -20 4 -20 9 0 5 9 7 20 4 11 -3 20 -7 20 -9z
m104 -25 c-3 -5 -10 -7 -15 -3 -5 3 -7 10 -3 15 3 5 10 7 15 3 5 -3 7 -10 3
-15z m-154 -2 c0 -5 -7 -7 -15 -3 -9 3 -30 -10 -55 -36 -48 -50 -54 -74 -13
-53 16 8 30 10 33 5 3 -5 11 -1 17 10 10 14 9 19 -2 24 -25 9 -16 26 14 26 16
0 34 7 41 15 14 17 40 20 40 5 0 -5 9 -10 21 -10 18 0 58 -34 59 -50 0 -3 -30
-5 -66 -5 -36 0 -75 -5 -87 -12 -20 -11 -19 -12 16 -13 20 0 37 -4 37 -9 0 -4
-10 -6 -23 -4 -21 4 -24 1 -24 -26 0 -21 5 -31 16 -32 9 0 3 -5 -14 -10 -16
-5 -41 -7 -53 -4 -15 4 -21 2 -17 -5 3 -5 2 -10 -4 -10 -20 0 -22 21 -6 46 22
34 11 43 -15 13 l-21 -24 6 25 c5 21 -1 16 -38 -23 -34 -38 -49 -48 -68 -45
-24 4 -24 4 6 20 17 9 38 32 49 52 10 19 25 37 32 40 8 3 14 12 14 20 0 10 -6
13 -17 9 -16 -6 -16 -5 -4 11 10 12 16 14 21 5 9 -13 30 -4 30 13 0 23 33 48
62 46 15 -1 28 -6 28 -11z m200 -96 c0 -14 -18 -23 -30 -16 -6 4 -8 11 -5 16
8 12 35 12 35 0z m-165 -61 c3 -6 -1 -7 -9 -4 -18 7 -21 14 -7 14 6 0 13 -4
16 -10z m153 -46 c14 -15 14 -16 -3 -13 -10 2 -20 10 -23 17 -5 17 6 15 26 -4z
m-198 -26 c0 -14 -87 -19 -128 -8 -23 6 -42 12 -42 14 0 2 38 3 85 2 47 0 85
-4 85 -8z m205 -16 c-3 -3 -11 0 -18 7 -9 10 -8 11 6 5 10 -3 15 -9 12 -12z
m-420 -2 c-3 -5 1 -10 9 -10 8 0 17 4 20 9 8 12 45 2 78 -21 14 -10 40 -21 57
-24 17 -4 31 -11 31 -16 0 -6 -8 -7 -17 -3 -10 3 -55 9 -100 12 -64 5 -89 2
-116 -11 -43 -20 -47 -20 -47 0 0 8 4 12 10 9 6 -3 7 1 4 9 -5 12 1 16 22 17
16 0 23 3 16 6 -10 4 -9 8 5 19 21 16 37 18 28 4z m15 -75 c7 -8 22 -15 34
-15 12 0 31 -7 42 -16 18 -14 18 -15 -4 -4 -13 6 -37 8 -54 5 -22 -5 -29 -4
-23 5 4 6 -1 18 -11 25 -11 8 -14 15 -8 15 6 0 17 -7 24 -15z m225 5 c-3 -5
-10 -10 -16 -10 -5 0 -9 5 -9 10 0 6 7 10 16 10 8 0 12 -4 9 -10z m45 -6 c0
-14 -3 -14 -15 -4 -8 7 -15 14 -15 16 0 2 7 4 15 4 8 0 15 -7 15 -16z m40 0
c0 -8 -5 -12 -10 -9 -6 4 -8 11 -5 16 9 14 15 11 15 -7z m60 -4 c0 -5 -2 -10
-4 -10 -3 0 -8 5 -11 10 -3 6 -1 10 4 10 6 0 11 -4 11 -10z m130 -16 c0 -9 -5
-14 -12 -12 -18 6 -21 28 -4 28 9 0 16 -7 16 -16z m-567 -36 c-4 -7 -8 -17 -8
-23 0 -5 -4 -10 -10 -10 -5 0 -14 -3 -20 -6 -5 -3 -19 -9 -30 -12 -20 -6 -20
-6 -1 6 11 7 29 22 40 33 23 24 42 31 29 12z m222 -8 c3 -5 1 -10 -4 -10 -6 0
-11 5 -11 10 0 6 2 10 4 10 3 0 8 -4 11 -10z m72 4 c-3 -3 -12 -4 -19 -1 -8 3
-5 6 6 6 11 1 17 -2 13 -5z m-262 -34 c-4 -6 7 -8 29 -4 20 3 36 1 36 -4 0 -5
-22 -12 -48 -16 -27 -3 -57 -13 -68 -21 -10 -8 -27 -15 -38 -15 -16 0 -15 3 7
20 14 11 30 20 35 20 5 0 12 7 16 15 3 8 13 15 21 15 9 0 13 -5 10 -10z m260
-10 c3 -5 1 -10 -4 -10 -6 0 -11 5 -11 10 0 6 2 10 4 10 3 0 8 -4 11 -10z
m-115 -50 c0 -11 -59 -45 -93 -53 -14 -4 -45 -25 -68 -48 -22 -22 -44 -38 -47
-34 -3 3 0 11 6 17 7 7 12 16 12 20 0 14 -22 8 -37 -9 -13 -16 -13 -16 -3 4
13 28 23 34 39 24 8 -5 22 1 39 16 14 13 45 29 70 35 24 6 49 19 55 29 11 17
27 17 27 -1z m139 -22 c12 -16 11 -18 -10 -17 -13 0 -19 3 -12 5 7 3 9 13 6
22 -7 18 -5 17 16 -10z m-84 2 c3 -5 1 -10 -4 -10 -6 0 -11 5 -11 10 0 6 2 10
4 10 3 0 8 -4 11 -10z m265 0 c0 -5 -5 -10 -11 -10 -5 0 -7 5 -4 10 3 6 8 10
11 10 2 0 4 -4 4 -10z m-257 -33 c3 -8 2 -19 -3 -26 -5 -9 -9 -4 -12 13 -5 27
6 36 15 13z m246 -97 l1 -25 -25 28 c-14 15 -32 27 -40 27 -8 0 -15 5 -15 10
0 14 13 12 36 -5 27 -20 32 -19 26 10 -3 20 -9 24 -23 20 -16 -5 -16 -3 4 19
l22 25 7 -42 c3 -23 7 -53 7 -67z m-366 40 c46 -14 63 -30 30 -30 -18 0 -103
39 -103 47 0 2 6 3 13 1 6 -2 33 -10 60 -18z m247 10 c0 -5 8 -10 17 -10 9 0
14 -2 11 -5 -8 -9 -68 7 -62 16 7 12 34 11 34 -1z m150 -45 c0 -14 -2 -25 -4
-25 -2 0 -6 11 -8 25 -3 14 -1 25 3 25 5 0 9 -11 9 -25z m-430 6 c0 -5 -19
-12 -42 -16 -24 -5 -45 -9 -48 -10 -3 -2 -15 -6 -27 -10 -13 -4 -20 -11 -17
-16 3 -5 -2 -9 -10 -9 -40 0 18 48 68 57 11 2 22 6 25 8 8 9 51 5 51 -4z m215
-21 c8 -13 -5 -13 -25 0 -13 8 -13 10 2 10 9 0 20 -4 23 -10z m225 -40 c0 -5
-4 -10 -10 -10 -5 0 -10 5 -10 10 0 6 5 10 10 10 6 0 10 -4 10 -10z m-362 -17
c-10 -2 -28 -2 -40 0 -13 2 -5 4 17 4 22 1 32 -1 23 -4z m186 -26 c7 -6 6 -7
-4 -4 -8 2 -16 12 -17 23 -2 13 -1 15 4 4 3 -8 11 -19 17 -23z m-244 -22 c14
-17 3 -20 -20 -5 -9 5 -19 5 -27 -2 -10 -8 -13 -6 -13 6 0 21 43 22 60 1z m90
-22 c-14 -9 -27 -18 -30 -20 -3 -3 3 -9 13 -14 23 -14 21 -25 -5 -33 -19 -5
-21 -8 -8 -16 13 -8 13 -10 -2 -10 -14 0 -16 6 -11 30 3 17 2 30 -3 29 -28 -5
-24 4 11 26 45 27 73 34 35 8z m289 -49 c3 -14 0 -16 -10 -7 -8 6 -43 9 -81 8
-38 -2 -68 1 -68 6 0 7 113 18 145 14 6 -1 12 -10 14 -21z m-204 6 c18 -8 17
-9 -7 -9 -16 -1 -28 4 -28 9 0 12 8 12 35 0z m-150 -10 c3 -6 -1 -13 -11 -17
-16 -6 -15 -7 2 -20 14 -10 14 -13 3 -13 -8 0 -20 5 -27 12 -9 9 -22 8 -54 -2
-24 -8 -47 -17 -53 -21 -5 -4 -28 -10 -50 -13 l-40 -7 55 26 c30 15 74 31 98
38 23 6 42 15 42 19 0 12 28 10 35 -2z m105 -130 c0 -5 -5 -10 -11 -10 -5 0
-7 5 -4 10 3 6 8 10 11 10 2 0 4 -4 4 -10z"/>
<path d="M1752 2860 c-8 -13 -8 -20 -2 -20 6 0 13 7 17 15 9 24 -1 27 -15 5z"/>
<path d="M1666 2756 c-9 -32 -8 -34 19 -28 30 5 34 37 6 45 -14 3 -21 -2 -25
-17z"/>
<path d="M4051 3535 c-13 -44 -8 -77 5 -39 4 10 15 31 26 45 16 24 16 28 2 33
-9 3 -17 6 -18 6 -1 0 -8 -20 -15 -45z"/>
<path d="M2150 3560 c-9 -6 -10 -10 -3 -10 6 0 15 5 18 10 8 12 4 12 -15 0z"/>
<path d="M4407 3512 c-49 -36 -156 -182 -133 -182 2 0 25 30 51 68 26 37 66
84 89 104 48 44 46 48 -7 10z"/>
<path d="M4452 3510 c-41 -29 -50 -40 -34 -40 8 1 88 70 80 70 -3 0 -24 -14
-46 -30z"/>
<path d="M5533 3527 c7 -17 -8 -24 -17 -8 -3 5 -17 9 -31 9 -21 0 -23 -2 -10
-12 8 -6 22 -20 31 -31 13 -16 15 -17 10 -3 -3 10 -2 17 2 17 31 -5 45 22 20
37 -8 5 -9 2 -5 -9z"/>
<path d="M2509 3493 c9 -20 40 -84 69 -142 43 -86 52 -98 47 -66 -4 22 -19 65
-35 97 -16 31 -26 59 -23 62 3 3 -2 8 -11 12 -9 3 -16 11 -16 18 -1 11 -34 56
-43 56 -2 0 3 -17 12 -37z"/>
<path d="M2560 3506 c0 -9 5 -16 10 -16 6 0 10 4 10 9 0 6 -4 13 -10 16 -5 3
-10 -1 -10 -9z"/>
<path d="M4716 3478 c7 -45 -3 -50 -17 -8 -6 17 -15 30 -20 30 -5 0 -4 -12 1
-26 12 -31 12 -34 1 -34 -5 0 -11 10 -13 22 -2 12 -8 23 -14 25 -7 2 -10 -6
-7 -24 4 -28 4 -28 -9 -5 l-14 23 -24 -26 c-15 -16 -26 -21 -31 -14 -5 8 -8 8
-13 0 -7 -10 6 -16 27 -12 4 1 33 -15 63 -35 42 -28 58 -34 64 -25 5 9 9 10
14 2 4 -6 1 -11 -6 -11 -7 0 -4 -8 9 -21 l21 -22 49 34 c26 19 50 36 53 38 3
2 -1 6 -7 8 -7 3 -13 15 -13 28 0 13 -5 27 -10 30 -10 6 -7 -21 6 -62 2 -7 0
-13 -5 -13 -5 0 -14 21 -20 46 -14 53 -24 56 -12 4 4 -20 5 -44 1 -55 -5 -15
-9 -6 -14 30 -4 28 -11 57 -16 65 -6 10 -7 2 -3 -22 4 -25 2 -38 -6 -38 -6 0
-11 8 -11 19 0 10 -7 34 -15 52 l-15 34 6 -37z m1 -80 c-3 -7 -5 -2 -5 12 0
14 2 19 5 13 2 -7 2 -19 0 -25z"/>
<path d="M2480 3490 c0 -3 4 -20 9 -38 8 -25 7 -32 -5 -32 -8 0 -14 -5 -14
-11 0 -6 9 -8 20 -4 14 4 20 2 20 -9 0 -16 18 -31 27 -22 3 3 0 12 -6 20 -7 8
-11 19 -8 23 3 4 -6 24 -19 43 -13 19 -24 32 -24 30z"/>
<path d="M2370 3476 c0 -2 7 -9 15 -16 9 -7 15 -8 15 -2 0 5 -7 12 -15 16 -8
3 -15 4 -15 2z"/>
<path d="M5872 3470 c0 -8 6 -31 13 -50 7 -19 13 -28 13 -20 0 8 -6 31 -13 50
-7 19 -13 28 -13 20z"/>
<path d="M5671 3467 c2 -2 18 -11 34 -22 l30 -18 -19 21 c-11 12 -26 22 -34
22 -9 0 -13 -1 -11 -3z"/>
<path d="M5821 3444 c0 -11 3 -14 6 -6 3 7 2 16 -1 19 -3 4 -6 -2 -5 -13z"/>
<path d="M2290 3424 c0 -17 14 -18 28 -1 8 10 6 13 -9 14 -10 1 -19 -5 -19
-13z"/>
<path d="M2400 3430 c0 -11 15 -29 79 -96 46 -48 63 -51 41 -6 -25 50 -120
131 -120 102z"/>
<path d="M2600 3423 c0 -12 5 -25 10 -28 13 -8 13 15 0 35 -8 12 -10 11 -10
-7z"/>
<path d="M4520 3431 c0 -5 9 -13 21 -16 11 -4 36 -20 55 -37 19 -17 37 -28 40
-25 3 3 -14 19 -38 36 -23 17 -48 35 -55 41 -15 12 -23 13 -23 1z"/>
<path d="M2635 3421 c-3 -5 -2 -12 3 -15 5 -3 9 1 9 9 0 17 -3 19 -12 6z"/>
<path d="M4850 3421 c0 -5 5 -13 10 -16 6 -3 10 -2 10 4 0 5 -4 13 -10 16 -5
3 -10 2 -10 -4z"/>
<path d="M5780 3400 c0 -5 5 -10 10 -10 6 0 10 5 10 10 0 6 -4 10 -10 10 -5 0
-10 -4 -10 -10z"/>
<path d="M2378 3355 c24 -25 47 -45 50 -45 3 0 11 -8 18 -17 8 -11 13 -13 14
-5 0 6 -9 21 -20 32 -12 12 -19 24 -16 28 2 4 -3 16 -11 27 -15 19 -15 19 -10
-4 l6 -24 -28 27 c-47 45 -51 28 -3 -19z"/>
<path d="M4818 3337 c-61 -34 -67 -41 -42 -51 16 -6 134 60 134 75 0 17 -36 8
-92 -24z"/>
<path d="M2631 3350 c0 -14 28 -72 29 -59 0 4 -7 22 -15 40 -8 19 -14 27 -14
19z"/>
<path d="M2540 3341 c0 -6 5 -13 10 -16 6 -3 10 -16 10 -27 0 -12 3 -19 6 -15
9 8 -6 67 -17 67 -5 0 -9 -4 -9 -9z"/>
<path d="M2851 3342 c-1 -19 36 -65 43 -53 3 5 -1 12 -9 15 -9 3 -20 16 -25
28 -5 13 -9 17 -9 10z"/>
<path d="M4650 3330 c0 -11 -5 -20 -11 -20 -5 0 -7 6 -4 13 4 6 0 4 -7 -5 -14
-17 -48 -20 -59 -4 -4 4 -9 4 -12 -1 -3 -5 10 -16 29 -25 20 -9 34 -11 34 -5
0 6 3 7 7 4 3 -4 12 2 20 13 20 28 34 24 68 -20 29 -37 55 -58 55 -42 -1 11
-63 75 -93 95 -26 17 -27 17 -27 -3z"/>
<path d="M4965 3340 c-16 -4 -57 -24 -89 -44 -33 -20 -63 -36 -67 -36 -4 0 -6
-11 -5 -25 1 -29 8 -31 26 -10 8 9 21 13 32 9 12 -3 45 5 81 22 34 15 69 27
77 26 8 0 26 2 40 4 24 5 24 6 6 20 -25 18 -55 10 -134 -33 -35 -19 -66 -32
-69 -29 -4 3 -4 7 -2 9 57 39 90 58 117 68 17 6 32 15 32 20 0 10 -3 10 -45
-1z"/>
<path d="M2135 3330 c3 -5 8 -10 11 -10 2 0 4 5 4 10 0 6 -5 10 -11 10 -5 0
-7 -4 -4 -10z"/>
<path d="M4677 3283 c-4 -3 -7 -11 -7 -17 0 -6 5 -5 12 2 6 6 9 14 7 17 -3 3
-9 2 -12 -2z"/>
<path d="M2965 3269 c-4 -6 3 -21 16 -35 20 -21 24 -22 39 -9 19 17 50 20 50
4 0 -5 5 -7 11 -3 7 4 1 15 -17 30 -34 28 -49 30 -40 7 6 -16 6 -16 -12 0 -21
20 -38 22 -47 6z"/>
<path d="M4575 3270 c-3 -5 -1 -10 4 -10 6 0 11 5 11 10 0 6 -2 10 -4 10 -3 0
-8 -4 -11 -10z"/>
<path d="M2571 3254 c0 -11 3 -14 6 -6 3 7 2 16 -1 19 -3 4 -6 -2 -5 -13z"/>
<path d="M2670 3261 c0 -6 4 -13 10 -16 6 -3 7 1 4 9 -7 18 -14 21 -14 7z"/>
<path d="M5340 3259 c0 -4 26 -12 58 -18 31 -6 79 -16 105 -21 27 -6 63 -9 80
-9 27 1 25 3 -13 9 -25 4 -87 16 -137 27 -51 11 -93 17 -93 12z"/>
<path d="M4700 3256 c0 -2 7 -9 15 -16 13 -11 14 -10 9 4 -5 14 -24 23 -24 12z"/>
<path d="M4637 3232 c-25 -27 -21 -35 8 -16 25 16 33 34 17 34 -5 0 -16 -8
-25 -18z"/>
<path d="M4680 3231 c0 -10 19 -25 25 -20 1 2 -3 10 -11 17 -8 7 -14 8 -14 3z"/>
<path d="M2250 3221 c0 -5 9 -11 19 -14 14 -3 18 -1 14 9 -6 15 -33 19 -33 5z"/>
<path d="M2947 3214 c3 -7 9 -14 14 -14 14 0 10 17 -5 23 -10 4 -13 1 -9 -9z"/>
<path d="M5628 3223 c6 -2 18 -2 25 0 6 3 1 5 -13 5 -14 0 -19 -2 -12 -5z"/>
<path d="M2680 3209 c0 -5 5 -7 10 -4 6 3 10 8 10 11 0 2 -4 4 -10 4 -5 0 -10
-5 -10 -11z"/>
<path d="M4085 3210 c-3 -5 -1 -10 4 -10 6 0 11 5 11 10 0 6 -2 10 -4 10 -3 0
-8 -4 -11 -10z"/>
<path d="M4115 3200 c4 -6 11 -8 16 -5 14 9 11 15 -7 15 -8 0 -12 -5 -9 -10z"/>
<path d="M4525 3200 c-3 -6 1 -7 9 -4 18 7 21 14 7 14 -6 0 -13 -4 -16 -10z"/>
<path d="M3044 3188 c-8 -13 11 -14 76 -8 64 7 56 11 -28 14 -24 0 -46 -2 -48
-6z"/>
<path d="M2755 3182 c-32 -7 -45 -25 -13 -20 23 4 29 0 37 -24 6 -16 8 -35 5
-42 -3 -8 0 -17 7 -22 9 -5 11 5 6 46 -7 60 -13 68 -42 62z"/>
<path d="M3004 3165 c9 -14 12 -25 7 -25 -5 0 -28 -19 -51 -42 -42 -42 -70
-105 -53 -117 4 -3 6 -24 3 -46 -5 -35 -7 -37 -13 -17 -5 12 -5 32 -2 45 7 20
6 21 -10 6 -17 -16 -29 -82 -13 -73 4 3 5 -2 2 -10 -3 -9 -9 -14 -13 -11 -4 2
-6 -8 -3 -23 2 -18 -4 -35 -18 -50 -11 -12 -18 -27 -14 -34 5 -8 2 -9 -10 -5
-10 4 -25 7 -34 7 -12 0 -10 6 9 28 40 43 55 71 18 32 -18 -19 -51 -50 -72
-67 -41 -35 -37 -47 4 -14 22 17 27 17 44 4 19 -15 19 -15 -2 -8 -13 3 -23 2
-23 -4 0 -5 -9 -13 -20 -16 -26 -8 -16 -25 10 -18 22 6 50 -20 49 -47 0 -8 -4
-5 -9 8 -10 24 -30 30 -30 9 0 -7 5 -18 12 -25 9 -9 9 -12 0 -12 -7 0 -12 4
-12 8 0 5 -12 15 -27 23 -46 22 -49 21 -18 -5 23 -20 26 -26 13 -26 -25 0 -38
-31 -39 -97 -1 -56 -2 -57 -9 -18 -4 22 -6 50 -4 62 3 17 1 21 -11 17 -13 -5
-14 -18 -9 -70 4 -43 2 -64 -5 -64 -6 0 -11 12 -11 28 0 44 -16 55 -17 12 -1
-22 3 -42 8 -46 5 -3 7 -15 3 -26 -4 -13 -2 -18 4 -14 11 7 45 -40 38 -52 -3
-5 16 -7 42 -6 25 2 52 -2 59 -8 8 -6 16 -8 20 -5 3 4 -7 12 -23 19 -16 6 -39
21 -51 32 -13 11 -26 16 -30 12 -4 -4 3 -16 17 -28 14 -11 18 -16 10 -12 -31
15 -60 48 -59 68 0 19 1 18 11 -4 6 -15 12 -20 15 -12 3 9 12 7 33 -8 30 -22
84 -44 76 -32 -2 4 2 32 9 62 8 33 14 45 14 29 1 -23 6 -27 47 -33 89 -12 87
-13 80 47 -3 28 -9 97 -12 151 -6 113 -5 116 70 116 38 0 47 3 43 15 -4 8 -2
17 4 21 11 6 285 3 384 -5 6 -1 9 -53 7 -143 -4 -164 6 -183 13 -27 3 57 8
132 11 167 l6 63 61 -1 c34 -1 88 -1 120 -1 l57 1 0 51 c0 34 -4 48 -11 43
-13 -7 -2 37 11 46 4 3 4 14 -1 25 -4 11 -8 14 -8 7 -1 -8 -6 -10 -13 -6 -10
6 -10 5 -1 -8 22 -26 3 -27 -24 -2 -22 21 -35 24 -85 22 -32 -1 -58 -6 -58
-10 0 -5 -9 -4 -19 2 -11 5 -35 10 -53 10 -18 1 -60 7 -93 15 -33 8 -70 12
-82 9 -13 -4 -23 -2 -23 4 0 12 -74 49 -114 56 -35 6 -37 8 -21 23 10 9 19 8
40 -3 33 -17 59 -18 30 -2 -19 12 -19 12 5 19 14 4 -12 5 -57 2 -73 -4 -84 -2
-104 16 -31 29 -45 26 -25 -4z m163 -81 c-3 -3 -12 -4 -19 -1 -8 3 -5 6 6 6
11 1 17 -2 13 -5z m-217 -45 c-7 -13 -10 -44 -8 -76 3 -30 1 -48 -3 -41 -13
20 -10 117 4 132 17 20 21 12 7 -15z m110 2 c0 -5 -9 -7 -20 -4 -11 3 -20 7
-20 9 0 2 9 4 20 4 11 0 20 -4 20 -9z m279 -27 c2 -2 -10 -4 -27 -4 -18 0 -32
5 -32 10 0 9 47 4 59 -6z m197 -21 c-10 -10 -19 5 -10 18 6 11 8 11 12 0 2 -7
1 -15 -2 -18z m-33 4 c4 3 7 -2 7 -11 0 -12 -5 -16 -16 -12 -9 3 -18 6 -20 6
-2 0 -4 7 -4 16 0 13 3 14 13 5 8 -6 17 -8 20 -4z m-306 -3 c-3 -3 -12 -4 -19
-1 -8 3 -5 6 6 6 11 1 17 -2 13 -5z m123 -16 c0 -4 -7 -8 -15 -8 -8 0 -15 4
-15 8 0 5 7 9 15 9 8 0 15 -4 15 -9z m-37 -12 c4 -10 1 -13 -8 -9 -8 3 -12 9
-9 14 7 12 11 11 17 -5z m163 -11 c19 -8 41 -12 49 -9 8 4 15 1 15 -5 0 -20
-43 -30 -58 -14 -8 8 -26 13 -41 11 -18 -2 -27 2 -29 15 -4 21 16 22 64 2z
m216 -10 c-2 -14 -6 -25 -8 -25 -2 0 -4 11 -4 25 0 14 4 25 9 25 4 0 6 -11 3
-25z m-40 3 c-9 -9 -15 -9 -24 0 -9 9 -7 12 12 12 19 0 21 -3 12 -12z m-99
-55 c-7 -2 -19 -2 -25 0 -7 3 -2 5 12 5 14 0 19 -2 13 -5z m-616 -50 c-3 -10
-5 -2 -5 17 0 19 2 27 5 18 2 -10 2 -26 0 -35z m135 35 c-9 -9 -15 -9 -24 0
-9 9 -7 12 12 12 19 0 21 -3 12 -12z m650 0 c-15 -15 -158 -25 -148 -10 3 5
25 8 48 5 24 -3 54 0 68 6 34 14 46 13 32 -1z m-302 -35 c2 -2 -21 -3 -52 -1
-31 2 -54 6 -52 10 5 7 94 -1 104 -9z m-500 -34 c0 -5 -7 -9 -15 -9 -9 0 -12
6 -9 15 6 15 24 11 24 -6z m25 -36 c-3 -8 -5 -19 -5 -23 0 -5 -12 -16 -27 -24
-24 -12 -26 -15 -11 -21 10 -4 15 -11 12 -16 -10 -17 -34 20 -34 54 0 41 2 44
40 44 23 0 29 -4 25 -14z m-78 -39 c-3 -3 -12 -4 -19 -1 -8 3 -5 6 6 6 11 1
17 -2 13 -5z m81 -159 c-1 -14 -8 -25 -15 -25 -7 0 -13 11 -13 25 0 15 6 25
15 25 10 0 14 -9 13 -25z m-132 -35 c0 -11 -6 -20 -13 -20 -7 0 -13 9 -13 20
0 11 6 20 13 20 7 0 13 -9 13 -20z"/>
<path d="M4080 3170 c0 -11 2 -20 4 -20 2 0 6 9 9 20 3 11 1 20 -4 20 -5 0 -9
-9 -9 -20z"/>
<path d="M2400 3140 c45 -42 62 -52 39 -22 -25 31 -60 62 -71 62 -6 0 9 -18
32 -40z"/>
<path d="M5837 3173 c-4 -3 -7 -11 -7 -17 0 -6 5 -5 12 2 6 6 9 14 7 17 -3 3
-9 2 -12 -2z"/>
<path d="M2882 3145 c0 -16 2 -22 5 -12 2 9 2 23 0 30 -3 6 -5 -1 -5 -18z"/>
<path d="M3690 3160 c0 -5 5 -10 10 -10 6 0 10 5 10 10 0 6 -4 10 -10 10 -5 0
-10 -4 -10 -10z"/>
<path d="M2707 3132 c3 -9 11 -21 18 -27 6 -5 17 -19 23 -30 9 -16 11 -17 12
-4 0 9 -7 22 -15 29 -8 7 -15 18 -15 25 0 7 -7 15 -14 18 -11 4 -13 1 -9 -11z"/>
<path d="M4140 3139 c0 -5 5 -7 10 -4 6 3 10 8 10 11 0 2 -4 4 -10 4 -5 0 -10
-5 -10 -11z"/>
<path d="M4260 3139 c0 -5 5 -7 10 -4 6 3 10 8 10 11 0 2 -4 4 -10 4 -5 0 -10
-5 -10 -11z"/>
<path d="M4810 3140 c0 -5 5 -10 10 -10 6 0 10 5 10 10 0 6 -4 10 -10 10 -5 0
-10 -4 -10 -10z"/>
<path d="M2956 3125 c-3 -8 -1 -15 4 -15 6 0 10 7 10 15 0 8 -2 15 -4 15 -2 0
-6 -7 -10 -15z"/>
<path d="M3278 3128 c5 -5 16 -8 23 -6 8 3 3 7 -10 11 -17 4 -21 3 -13 -5z"/>
<path d="M3500 3130 c-24 -8 -23 -8 8 -9 20 -1 31 3 27 9 -3 6 -7 10 -8 9 -1
-1 -13 -5 -27 -9z"/>
<path d="M4027 3123 c-10 -19 -16 -63 -11 -77 11 -30 19 -16 19 34 0 51 -1 56
-8 43z"/>
<path d="M2852 3090 c0 -19 2 -27 5 -17 2 9 2 25 0 35 -3 9 -5 1 -5 -18z"/>
<path d="M3227 3109 c7 -7 15 -10 18 -7 3 3 -2 9 -12 12 -14 6 -15 5 -6 -5z"/>
<path d="M3372 3108 c6 -18 28 -21 28 -4 0 9 -7 16 -16 16 -9 0 -14 -5 -12
-12z"/>
<path d="M3430 3110 c0 -5 7 -10 15 -10 8 0 15 5 15 10 0 6 -7 10 -15 10 -8 0
-15 -4 -15 -10z"/>
<path d="M4245 3110 c3 -5 8 -10 11 -10 2 0 4 5 4 10 0 6 -5 10 -11 10 -5 0
-7 -4 -4 -10z"/>
<path d="M4770 3110 c0 -6 5 -8 11 -4 6 3 16 0 21 -7 8 -12 9 -11 5 1 -4 18
-37 27 -37 10z"/>
<path d="M3396 3082 c-16 -19 -16 -20 4 -25 11 -3 22 -2 25 3 3 4 37 8 77 9
82 1 86 -6 7 -15 -30 -3 -55 -7 -57 -9 -2 -2 57 -3 132 -2 100 1 137 5 140 14
3 7 15 13 26 13 12 0 19 4 16 8 -7 12 -70 6 -74 -7 -2 -6 -28 -11 -58 -11 -31
0 -53 4 -50 9 8 13 -42 20 -102 14 -36 -4 -56 -2 -61 6 -5 8 -12 6 -25 -7z"/>
<path d="M4521 3063 c-17 -21 -31 -44 -31 -51 0 -8 -7 -11 -19 -7 -15 4 -20
-2 -28 -34 -6 -22 -7 -43 -3 -48 5 -4 11 -19 13 -33 3 -14 5 -2 5 25 -1 68 0
75 12 75 6 0 10 -12 10 -27 0 -16 5 -35 11 -43 8 -12 9 -10 4 7 -10 37 6 94
38 130 16 18 27 36 24 39 -2 3 -19 -12 -36 -33z"/>
<path d="M4610 3075 c-16 -17 -19 -25 -9 -25 15 1 56 50 41 50 -5 0 -19 -11
-32 -25z"/>
<path d="M5336 3088 c3 -7 17 -22 32 -32 27 -19 27 -19 -2 12 -32 35 -38 38
-30 20z"/>
<path d="M2715 3064 c14 -15 25 -31 25 -35 0 -5 9 -9 21 -9 15 0 19 -4 15 -15
-21 -52 -21 -51 -5 -35 24 24 27 44 7 63 -12 11 -18 13 -18 5 0 -7 -6 -4 -12
7 -11 22 -37 45 -49 45 -5 0 3 -12 16 -26z"/>
<path d="M3250 3086 c0 -2 6 -9 14 -15 11 -9 16 -9 22 0 4 8 3 9 -4 5 -7 -4
-12 -2 -12 3 0 6 -4 11 -10 11 -5 0 -10 -2 -10 -4z"/>
<path d="M3312 3078 c7 -19 43 -21 58 -3 8 10 9 15 1 15 -6 0 -11 -4 -11 -10
0 -5 -7 -10 -15 -10 -8 0 -15 5 -15 10 0 6 -5 10 -11 10 -6 0 -9 -6 -7 -12z"/>
<path d="M3655 3080 c3 -5 10 -10 16 -10 5 0 9 5 9 10 0 6 -7 10 -16 10 -8 0
-12 -4 -9 -10z"/>
<path d="M4760 3081 c0 -4 -11 -20 -25 -33 l-25 -25 25 5 c16 3 25 11 25 23 0
11 5 19 10 19 6 0 10 5 10 10 0 6 -4 10 -10 10 -5 0 -10 -4 -10 -9z"/>
<path d="M3608 3073 c6 -2 18 -2 25 0 6 3 1 5 -13 5 -14 0 -19 -2 -12 -5z"/>
<path d="M4664 3058 c-11 -13 -29 -37 -42 -55 -20 -30 -21 -33 -4 -43 15 -10
15 -10 -3 -6 -11 3 -33 8 -50 11 l-30 5 28 -11 c19 -7 26 -16 23 -27 -9 -29
-26 -124 -26 -146 0 -17 2 -18 10 -6 5 8 10 31 10 51 0 23 11 52 31 82 17 26
28 51 24 57 -4 6 10 33 29 60 36 50 36 69 0 28z"/>
<path d="M2145 3060 c3 -5 13 -10 21 -10 8 0 12 5 9 10 -3 6 -13 10 -21 10 -8
0 -12 -4 -9 -10z"/>
<path d="M4373 3055 c-8 -22 6 -33 17 -15 13 20 12 30 0 30 -6 0 -13 -7 -17
-15z"/>
<path d="M2632 3040 c7 -10 14 -18 15 -16 6 6 -9 36 -18 36 -5 0 -4 -9 3 -20z"/>
<path d="M4417 3053 c-4 -3 -7 -20 -7 -37 0 -29 1 -29 13 -11 22 33 28 55 13
55 -7 0 -16 -3 -19 -7z"/>
<path d="M4465 3050 c-3 -5 -1 -10 4 -10 6 0 11 5 11 10 0 6 -2 10 -4 10 -3 0
-8 -4 -11 -10z"/>
<path d="M2130 3040 c0 -11 119 -82 131 -78 5 2 -22 22 -61 45 -38 23 -70 38
-70 33z"/>
<path d="M2851 3029 c0 -13 4 -33 9 -44 7 -14 8 -8 3 20 -7 46 -13 59 -12 24z"/>
<path d="M4149 3041 c-8 -23 8 -142 21 -154 10 -9 11 -9 5 2 -4 7 -10 48 -14
90 -4 42 -9 70 -12 62z"/>
<path d="M4873 3025 c-36 -32 -17 -32 22 0 17 13 25 24 18 25 -7 0 -25 -11
-40 -25z"/>
<path d="M4092 3010 c0 -14 2 -19 5 -12 2 6 2 18 0 25 -3 6 -5 1 -5 -13z"/>
<path d="M4036 2980 c7 -53 38 -126 67 -157 36 -40 37 -25 2 28 -19 28 -39 69
-45 92 -18 69 -30 89 -24 37z"/>
<path d="M2131 2994 c13 -16 29 -19 29 -5 0 5 -9 11 -21 14 -16 4 -18 3 -8 -9z"/>
<path d="M4694 2977 c-12 -17 -27 -42 -33 -54 -21 -42 -11 -34 24 17 20 29 34
57 33 61 -2 5 -13 -6 -24 -24z"/>
<path d="M4323 2925 c-1 -91 -10 -148 -24 -139 -11 7 -12 -7 0 -24 5 -9 14 5
26 43 15 48 16 69 8 129 l-10 71 0 -80z"/>
<path d="M4510 2969 c0 -11 5 -17 10 -14 6 3 10 13 10 21 0 8 -4 14 -10 14 -5
0 -10 -9 -10 -21z"/>
<path d="M4270 2943 c-3 -23 -2 -39 3 -34 5 5 7 24 5 42 -3 33 -4 33 -8 -8z"/>
<path d="M4391 2913 c1 -50 3 -61 9 -43 12 36 12 110 0 110 -6 0 -10 -29 -9
-67z"/>
<path d="M4091 2954 c0 -11 3 -14 6 -6 3 7 2 16 -1 19 -3 4 -6 -2 -5 -13z"/>
<path d="M5550 2940 c-19 -15 -21 -20 -9 -20 16 0 46 27 38 35 -2 2 -15 -5
-29 -15z"/>
<path d="M4925 2897 c-16 -29 -31 -69 -32 -90 -2 -21 -9 -64 -17 -95 -19 -75
-23 -126 -11 -130 6 -1 11 23 13 55 3 69 8 86 22 78 6 -4 10 6 11 22 3 79 9
113 29 156 31 65 21 68 -15 4z"/>
<path d="M4970 2905 c0 -15 -4 -25 -28 -72 -14 -27 -15 -33 -3 -33 9 0 51 90
51 109 0 6 -4 11 -10 11 -5 0 -10 -7 -10 -15z"/>
<path d="M4501 2883 c0 -5 4 -17 9 -28 8 -18 9 -17 9 8 1 15 -3 27 -9 27 -5 0
-10 -3 -9 -7z"/>
<path d="M2035 2863 c-3 -10 -9 -13 -13 -8 -11 16 -32 16 -26 0 3 -8 9 -14 12
-13 7 1 57 -18 76 -29 6 -4 5 1 -3 10 -7 9 -20 17 -27 17 -8 0 -14 5 -14 11 0
6 9 9 20 6 25 -6 26 -1 1 12 -15 8 -20 7 -26 -6z"/>
<path d="M4632 2867 c-25 -30 -42 -89 -41 -144 l1 -58 13 71 c7 38 20 85 29
103 18 35 17 51 -2 28z"/>
<path d="M4800 2840 c-9 -17 -9 -25 1 -34 9 -8 11 -7 6 5 -3 9 0 22 6 28 6 6
8 13 5 17 -4 3 -12 -4 -18 -16z"/>
<path d="M4461 2819 c0 -19 4 -43 9 -54 6 -13 7 -2 3 30 -7 59 -13 72 -12 24z"/>
<path d="M4402 2815 c0 -16 2 -22 5 -12 2 9 2 23 0 30 -3 6 -5 -1 -5 -18z"/>
<path d="M5799 2803 c-33 -54 -33 -53 -6 -53 22 0 25 5 29 43 3 23 4 43 3 45
-2 2 -13 -14 -26 -35z"/>
<path d="M1996 2822 c-3 -5 1 -9 9 -9 8 0 12 4 9 9 -3 4 -7 8 -9 8 -2 0 -6 -4
-9 -8z"/>
<path d="M2637 2811 c-4 -17 -3 -21 5 -13 5 5 8 16 6 23 -3 8 -7 3 -11 -10z"/>
<path d="M4520 2818 c0 -9 5 -20 10 -23 13 -8 13 5 0 25 -8 13 -10 13 -10 -2z"/>
<path d="M2030 2810 c0 -5 5 -10 11 -10 5 0 7 5 4 10 -3 6 -8 10 -11 10 -2 0
-4 -4 -4 -10z"/>
<path d="M3890 2750 c0 -25 4 -39 10 -35 6 3 10 19 10 35 0 16 -4 32 -10 35
-6 4 -10 -10 -10 -35z"/>
<path d="M4785 2780 c3 -5 8 -10 11 -10 2 0 4 5 4 10 0 6 -5 10 -11 10 -5 0
-7 -4 -4 -10z"/>
<path d="M4544 2734 c3 -18 12 -47 21 -65 11 -25 14 -27 10 -9 -3 14 -8 36
-11 49 -3 14 -10 32 -15 40 -8 12 -9 8 -5 -15z"/>
<path d="M2207 2739 c7 -7 15 -10 18 -7 3 3 -2 9 -12 12 -14 6 -15 5 -6 -5z"/>
<path d="M2015 2730 c-3 -5 -1 -10 4 -10 6 0 11 5 11 10 0 6 -2 10 -4 10 -3 0
-8 -4 -11 -10z"/>
<path d="M2610 2730 c0 -5 5 -10 10 -10 6 0 10 5 10 10 0 6 -4 10 -10 10 -5 0
-10 -4 -10 -10z"/>
<path d="M2285 2696 c17 -15 39 -31 50 -38 20 -11 20 -11 0 12 -11 12 -33 29
-50 37 l-30 15 30 -26z"/>
<path d="M2640 2690 c-23 -24 -37 -30 -72 -31 -38 0 -40 -1 -19 -10 14 -5 37
-7 53 -4 24 6 28 3 28 -14 0 -27 17 -27 41 2 24 29 24 37 -3 37 -19 0 -20 -2
-8 -10 13 -8 12 -10 -2 -10 -29 0 -21 27 12 42 33 14 39 28 14 28 -9 0 -29
-13 -44 -30z"/>
<path d="M3926 2711 c-4 -7 -5 -15 -2 -18 9 -9 19 4 14 18 -4 11 -6 11 -12 0z"/>
<path d="M4658 2707 c-4 -9 -3 -41 2 -69 10 -51 36 -90 73 -110 34 -18 29 0
-10 35 -33 30 -39 44 -48 99 -7 41 -13 57 -17 45z"/>
<path d="M4790 2713 c-1 -5 -5 -27 -9 -51 -5 -23 -5 -45 0 -48 5 -2 10 5 13
18 13 65 15 88 6 88 -6 0 -10 -3 -10 -7z"/>
<path d="M3952 2680 c-50 -43 -46 -66 17 -99 43 -24 139 2 154 42 8 22 -11 56
-42 71 -37 20 -41 20 -41 1 0 -8 -8 -15 -17 -14 -11 0 -13 3 -5 6 21 8 13 21
-13 19 -13 0 -37 -12 -53 -26z m51 -50 c3 -11 2 -20 -3 -20 -4 0 -10 9 -13 20
-3 11 -2 20 3 20 4 0 10 -9 13 -20z m42 10 c18 -8 17 -9 -7 -9 -16 -1 -28 4
-28 9 0 12 8 12 35 0z"/>
<path d="M4956 2650 c4 -25 10 -54 15 -65 l8 -20 0 20 c0 11 -6 40 -14 65
l-15 45 6 -45z"/>
<path d="M2247 2646 c10 -13 20 -20 21 -15 5 12 -17 39 -30 39 -5 0 -1 -11 9
-24z"/>
<path d="M3085 2648 c-51 -30 -67 -77 -39 -115 10 -14 39 -39 62 -57 40 -28
51 -31 115 -31 84 1 129 20 153 66 22 43 6 75 -57 118 -43 29 -60 35 -122 38
-62 3 -78 1 -112 -19z m48 -25 c-7 -2 -21 -2 -30 0 -10 3 -4 5 12 5 17 0 24
-2 18 -5z m217 -95 c0 -17 -3 -19 -9 -9 -5 7 -14 10 -20 7 -12 -8 -15 6 -4 17
14 15 33 6 33 -15z"/>
<path d="M5161 2623 c-7 -14 -9 -28 -6 -31 3 -4 8 4 12 17 3 13 11 20 19 17 8
-3 14 -1 14 3 0 22 -28 17 -39 -6z"/>
<path d="M5693 2636 c-36 -13 -53 -26 -34 -26 16 0 81 28 81 34 0 8 -8 6 -47
-8z"/>
<path d="M1965 2630 c-3 -5 3 -10 15 -10 12 0 18 5 15 10 -3 6 -10 10 -15 10
-5 0 -12 -4 -15 -10z"/>
<path d="M2368 2615 c2 -14 6 -25 8 -25 2 0 4 11 4 25 0 14 -4 25 -9 25 -4 0
-6 -11 -3 -25z"/>
<path d="M2272 2595 c-6 -14 -18 -25 -25 -25 -8 0 -14 -7 -14 -15 0 -11 4 -12
14 -3 26 21 21 3 -13 -47 -18 -27 -29 -52 -23 -54 6 -1 17 5 25 15 10 14 13
15 9 3 -4 -10 0 -16 10 -16 9 0 15 9 15 22 0 28 48 53 63 33 6 -9 7 -8 3 5 -3
10 -6 23 -6 28 0 6 -9 8 -19 4 -17 -5 -19 -2 -14 35 6 45 -8 54 -25 15z"/>
<path d="M4210 2600 c0 -19 11 -26 23 -14 8 8 -3 34 -14 34 -5 0 -9 -9 -9 -20z"/>
<path d="M5176 2593 c-6 -14 -5 -15 5 -6 7 7 10 15 7 18 -3 3 -9 -2 -12 -12z"/>
<path d="M3885 2580 c3 -5 8 -10 11 -10 2 0 4 5 4 10 0 6 -5 10 -11 10 -5 0
-7 -4 -4 -10z"/>
<path d="M4780 2552 c0 -4 19 -18 41 -30 23 -13 39 -19 35 -14 -8 14 -76 53
-76 44z"/>
<path d="M5135 2540 c-3 -5 -1 -10 4 -10 6 0 11 5 11 10 0 6 -2 10 -4 10 -3 0
-8 -4 -11 -10z"/>
<path d="M2360 2529 c0 -5 5 -7 10 -4 6 3 10 8 10 11 0 2 -4 4 -10 4 -5 0 -10
-5 -10 -11z"/>
<path d="M1770 2520 c0 -13 38 -32 53 -26 7 2 5 5 -4 5 -9 1 -19 8 -23 16 -6
17 -26 21 -26 5z"/>
<path d="M1845 2510 c-3 -5 -1 -10 4 -10 6 0 11 5 11 10 0 6 -2 10 -4 10 -3 0
-8 -4 -11 -10z"/>
<path d="M1915 2512 c-3 -3 -5 -12 -5 -21 0 -9 3 -12 8 -6 4 6 16 12 27 13 29
5 29 9 1 14 -14 3 -28 3 -31 0z"/>
<path d="M3900 2493 c0 -18 2 -33 4 -33 9 0 13 39 5 51 -6 10 -9 4 -9 -18z"/>
<path d="M2357 2503 c-4 -3 -7 -13 -7 -22 1 -13 3 -13 11 2 11 19 8 33 -4 20z"/>
<path d="M2398 2474 c-5 -4 -8 -16 -8 -28 0 -14 3 -17 11 -9 6 6 9 19 7 28 -1
9 -6 13 -10 9z"/>
<path d="M2440 2453 c0 -12 7 -29 16 -37 17 -18 28 -21 19 -6 -3 6 -13 22 -21
38 -13 24 -14 25 -14 5z"/>
<path d="M4073 2455 c-10 -11 -9 -15 6 -20 20 -6 37 -35 22 -35 -5 0 -11 5
-13 12 -2 6 -11 9 -18 6 -10 -3 -4 -10 18 -22 36 -19 43 -6 16 32 -8 12 -12
27 -9 32 9 15 -8 11 -22 -5z"/>
<path d="M1825 2441 c-3 -5 -1 -12 5 -16 5 -3 10 -1 10 5 0 6 4 9 9 5 5 -3 12
-1 16 5 3 5 -3 10 -14 10 -11 0 -22 -4 -26 -9z"/>
<path d="M3770 2414 c0 -9 -6 -14 -12 -11 -26 9 -67 -23 -79 -61 -9 -31 -22
-43 -85 -80 -43 -24 -74 -49 -74 -58 0 -13 -10 -15 -50 -12 -38 2 -50 -1 -54
-12 -3 -12 -4 -11 -5 2 -1 15 -20 17 -185 18 l-183 1 -7 -71 c-5 -46 -12 -73
-21 -76 -11 -5 -10 -10 5 -26 10 -11 24 -17 32 -13 7 3 5 0 -5 -8 -11 -10 -14
-18 -8 -22 6 -3 20 3 31 13 19 18 26 18 96 6 50 -9 83 -10 100 -4 14 6 35 9
47 9 20 -1 20 -2 -3 -8 -29 -7 -89 -38 -111 -57 -13 -12 -28 -11 -100 2 -116
21 -113 19 -93 49 13 19 13 25 3 25 -31 0 -149 54 -154 70 -5 17 -112 64 -145
65 -8 0 -18 -13 -21 -30 -4 -16 -7 -23 -8 -15 -1 13 -3 13 -10 1 -8 -12 -14
-13 -36 -3 -14 7 -34 12 -44 12 -11 0 -24 12 -31 30 -7 17 -19 30 -26 30 -8 0
-14 9 -14 19 0 11 -13 39 -28 63 -16 24 -35 58 -42 76 -17 43 -31 36 -47 -24
-19 -74 -15 -84 11 -29 25 50 35 50 16 -1 -9 -22 -8 -25 3 -16 10 9 13 5 11
-19 -3 -41 -11 -47 -24 -18 -8 19 -9 11 -5 -34 4 -44 2 -58 -7 -55 -15 5 -36
85 -32 121 1 15 -2 29 -7 32 -24 15 -1 -140 25 -168 30 -33 56 -74 56 -90 0
-7 20 -37 45 -66 37 -43 45 -60 45 -93 0 -22 14 -80 31 -129 17 -51 28 -98 25
-111 -3 -13 -3 -17 0 -10 9 19 24 14 24 -8 0 -15 -7 -20 -25 -20 -14 0 -25 5
-25 11 0 5 -4 8 -10 4 -5 -3 -6 -13 -3 -21 3 -9 1 -19 -5 -23 -8 -5 -7 -15 4
-35 20 -40 9 -45 -14 -7 -10 17 -22 28 -25 25 -4 -4 3 -20 15 -36 19 -27 25
-30 60 -25 35 5 38 3 32 -15 -3 -12 -1 -24 6 -28 10 -6 7 -16 -9 -39 -21 -29
-21 -31 -4 -31 11 0 29 9 42 21 21 20 22 29 4 77 -7 17 22 15 38 -4 10 -13 10
-22 -1 -52 -18 -50 -32 -62 -69 -57 -17 2 -31 -1 -31 -6 0 -6 -5 -7 -10 -4 -6
4 -8 10 -5 15 3 5 -3 13 -12 19 -16 9 -16 10 3 11 12 0 24 7 28 15 3 8 1 15
-5 15 -6 0 -8 9 -4 22 6 17 4 20 -10 14 -10 -3 -23 -2 -30 4 -8 7 -17 4 -30
-10 -16 -17 -16 -20 -2 -20 22 0 31 -18 17 -35 -14 -17 -47 -20 -52 -4 -6 18
-54 0 -55 -21 -1 -11 3 -22 8 -26 7 -4 3 -15 -9 -28 -42 -47 -60 -174 -34
-239 8 -21 12 -41 8 -44 -3 -4 -6 1 -6 10 0 10 -5 17 -10 17 -6 0 -8 -12 -4
-28 4 -18 3 -23 -4 -14 -25 36 -15 -183 11 -249 l11 -27 12 23 c6 13 17 40 24
61 22 66 92 188 132 230 25 26 36 44 29 48 -6 4 -11 16 -11 27 0 10 -6 19 -12
19 -8 0 -5 7 6 15 26 19 40 19 32 -1 -5 -12 -1 -14 16 -8 20 6 21 5 9 -10 -18
-22 -11 -28 13 -10 18 13 17 16 -23 59 -24 26 -40 50 -36 53 4 4 13 -1 20 -11
7 -10 17 -18 22 -18 23 1 53 -13 53 -24 0 -19 27 -26 40 -9 10 11 10 14 0 14
-8 0 -10 9 -5 28 5 22 4 25 -6 15 -16 -16 -29 -17 -29 -2 0 5 5 7 10 4 6 -3
10 -1 10 4 0 19 2 26 12 45 7 13 6 21 -3 27 -8 5 -9 9 -4 9 6 0 17 -5 25 -10
13 -9 13 -11 0 -21 -13 -9 -12 -10 3 -5 11 4 31 -2 47 -14 20 -14 29 -17 32
-8 3 9 12 8 31 -5 15 -10 27 -22 27 -27 0 -20 25 -9 37 16 10 22 10 25 -3 20
-8 -3 -29 1 -46 10 -24 12 -28 18 -17 25 21 13 27 11 34 -11 3 -11 11 -20 16
-20 13 0 11 26 -4 42 -18 19 -19 68 0 61 10 -4 13 -14 9 -29 -6 -24 9 -35 16
-13 3 9 10 9 27 0 12 -7 26 -9 29 -5 4 4 2 9 -5 11 -6 2 -21 13 -34 24 -12 10
-26 19 -31 19 -15 0 -8 31 9 37 13 5 12 8 -8 15 -23 9 -23 10 -5 24 11 8 34
14 50 15 31 0 31 0 -12 22 l-42 21 -15 -22 c-9 -11 -22 -19 -29 -16 -12 5 -31
56 -28 76 1 4 -13 18 -31 32 -17 15 -37 31 -44 36 -6 5 -26 18 -45 30 -32 20
-22 26 17 11 12 -5 26 -4 35 3 13 10 13 9 1 -7 -8 -9 -10 -21 -6 -25 4 -4 10
-1 12 6 8 21 20 13 27 -18 4 -25 10 -30 33 -29 l28 1 -28 10 c-15 5 -27 15
-26 21 2 19 -13 57 -22 57 -5 0 -9 6 -9 14 0 16 -44 29 -71 21 -11 -4 -19 -2
-19 4 0 12 58 15 84 5 9 -3 16 -14 17 -23 0 -10 2 -11 6 -3 2 6 11 12 18 12 8
0 15 12 17 28 3 30 15 32 118 17 49 -6 53 -6 36 7 -11 9 -16 22 -13 34 5 18 5
17 12 -3 7 -22 20 -27 58 -23 10 1 36 -8 58 -19 l39 -21 0 76 c0 55 3 75 12
72 18 -6 24 -138 6 -139 -17 -1 31 -17 56 -18 15 -1 16 2 7 13 -8 9 -8 15 -1
18 5 1 11 24 12 50 4 86 16 35 20 -80 l3 -113 34 -28 c24 -20 32 -33 28 -45
-6 -15 -16 -17 -64 -11 -32 3 -61 11 -65 18 -5 8 -8 4 -8 -10 0 -19 6 -22 63
-25 41 -3 67 0 78 9 8 7 25 13 37 13 12 0 22 5 22 10 0 6 -8 10 -17 10 -10 0
-31 14 -47 30 l-29 30 29 0 c16 0 24 4 18 8 -7 4 -13 44 -15 95 -4 77 -2 87
13 87 10 0 23 -6 30 -13 6 -8 22 -11 35 -9 13 2 23 -1 23 -7 0 -6 -8 -11 -18
-11 -13 0 -17 -7 -16 -27 0 -16 -4 -31 -10 -35 -8 -6 -6 -11 4 -18 13 -9 13
-10 0 -10 -10 0 -11 -3 -4 -8 15 -10 13 -42 -3 -42 -7 0 -13 -4 -13 -10 0 -14
82 -3 91 12 13 19 10 35 -2 18 -9 -12 -10 -12 -5 3 3 10 6 41 6 68 0 31 4 48
10 44 6 -3 10 -17 10 -31 0 -24 14 -32 25 -14 3 6 17 10 30 10 13 0 36 5 52
12 15 6 34 10 40 9 8 -1 10 4 7 14 -8 19 -9 19 -30 -2 -13 -13 -19 -14 -22 -5
-2 6 -10 12 -18 12 -12 0 -12 4 2 25 9 14 21 25 26 25 6 0 5 -7 -2 -15 -18
-22 -8 -28 31 -17 23 5 35 15 37 29 2 12 14 29 28 37 30 20 31 13 3 -22 -26
-34 -17 -37 75 -24 61 8 66 7 66 -10 0 -10 5 -18 10 -18 6 0 10 7 10 16 0 14
3 14 15 4 8 -7 14 -20 13 -28 -2 -9 5 -18 15 -20 10 -2 17 3 17 12 0 9 -4 16
-9 16 -5 0 -13 9 -16 20 -3 11 -13 20 -21 20 -22 0 -17 20 6 22 11 0 26 1 33
2 6 1 11 -5 9 -12 -1 -6 2 -12 8 -12 5 0 10 -6 10 -14 0 -8 4 -17 8 -20 5 -3
9 34 9 82 2 107 1 102 11 102 5 0 9 -8 9 -17 -1 -87 3 -104 28 -113 24 -9 35
-10 145 -10 46 0 52 2 40 13 -19 16 -43 58 -36 64 2 3 19 -3 36 -13 25 -15 34
-16 50 -6 28 17 25 0 -5 -28 -31 -29 -31 -32 -1 -46 22 -10 25 -9 30 17 4 19
12 29 23 29 10 0 29 10 43 23 14 12 34 21 44 19 14 -3 17 0 13 12 -4 9 -2 16
3 16 6 0 10 9 10 20 0 11 -4 20 -10 20 -5 0 -10 7 -10 15 0 17 -17 20 -22 5
-2 -7 -17 -6 -43 3 -22 8 -57 17 -79 21 -33 6 -38 5 -32 -9 3 -9 6 -20 6 -25
0 -4 14 -10 32 -14 31 -6 58 -22 58 -36 0 -4 -18 -12 -41 -19 -53 -16 -69 -4
-62 47 6 43 -22 78 -56 69 -14 -3 -22 1 -26 14 -4 10 -11 19 -16 19 -5 0 -9 9
-9 19 0 27 -10 51 -22 51 -6 0 -8 -13 -6 -29 4 -27 2 -29 -49 -42 -63 -15 -82
-5 -63 31 11 21 10 22 -19 15 -24 -5 -31 -3 -31 9 0 8 -9 20 -19 26 -28 15
-39 12 -17 -5 24 -19 11 -37 -21 -29 -19 5 -30 2 -39 -11 -21 -29 -27 -11 -9
25 9 18 15 33 13 34 -35 22 -106 90 -102 97 3 6 15 4 28 -4 20 -13 23 -13 32
0 11 17 54 10 54 -9 0 -7 -5 -7 -14 1 -10 9 -16 8 -26 -4 -11 -13 -10 -18 6
-30 10 -8 22 -15 25 -15 14 0 19 -33 8 -47 -7 -7 -9 -16 -6 -19 8 -9 27 5 27
20 0 7 14 23 31 35 30 23 31 26 26 82 -4 45 -2 59 10 63 23 9 33 -2 32 -37 0
-31 -40 -130 -50 -125 -2 2 -1 -1 2 -6 10 -11 29 2 29 20 0 8 7 14 15 14 13 0
14 -4 5 -20 -12 -22 -18 -20 98 -25 23 -1 42 2 42 7 0 4 -4 8 -10 8 -19 0 -10
19 13 26 35 10 57 35 57 64 0 29 -32 66 -49 55 -24 -14 -30 7 -9 35 25 34 20
44 -25 47 -50 3 -69 -6 -62 -28 4 -13 2 -19 -8 -19 -10 0 -13 7 -10 20 3 11 0
20 -6 20 -6 0 -11 -8 -11 -18 0 -27 -11 -34 -25 -16 -11 15 -14 15 -36 1 -23
-16 -26 -15 -53 8 -22 19 -26 28 -17 38 12 15 5 27 -16 27 -7 0 -13 -7 -13
-16z m12 -45 c35 -15 68 -70 68 -112 0 -44 -12 -47 -43 -11 -33 39 -56 49 -70
30 -11 -14 -15 -13 -36 3 -18 14 -22 24 -17 44 12 51 49 69 98 46z m228 -4 c0
-8 -7 -15 -16 -15 -14 0 -14 3 -4 15 7 8 14 15 16 15 2 0 4 -7 4 -15z m-360
-105 c0 -5 -2 -10 -4 -10 -3 0 -8 5 -11 10 -3 6 -1 10 4 10 6 0 11 -4 11 -10z
m-1141 -70 c8 -27 16 -38 24 -33 7 4 7 0 -2 -10 -11 -14 -11 -20 -1 -32 11
-13 15 -13 23 -3 6 9 6 6 1 -7 -4 -11 -7 -30 -7 -42 1 -13 -3 -23 -8 -23 -5 0
-9 11 -9 24 0 13 -8 44 -18 68 -25 57 -34 98 -24 98 5 0 14 -18 21 -40z m1209
-6 c22 -19 29 -40 14 -46 -5 -1 -28 -36 -51 -75 -45 -78 -65 -99 -31 -33 24
47 24 51 5 44 -9 -4 -15 0 -15 7 -1 9 -6 7 -17 -6 -15 -20 -15 -20 -10 2 6 27
-8 40 -17 17 -4 -9 -9 -14 -12 -11 -4 3 3 18 14 34 10 15 29 48 41 71 20 40
24 42 39 29 9 -8 27 -23 40 -33z m-168 7 c0 -6 -4 -13 -10 -16 -5 -3 -10 1
-10 9 0 9 5 16 10 16 6 0 10 -4 10 -9z m400 -5 c0 -3 -4 -8 -10 -11 -5 -3 -10
-1 -10 4 0 6 5 11 10 11 6 0 10 -2 10 -4z m50 -16 c0 -5 -2 -10 -4 -10 -3 0
-8 5 -11 10 -3 6 -1 10 4 10 6 0 11 -4 11 -10z m-823 -62 c-3 -8 -6 -5 -6 6
-1 11 2 17 5 13 3 -3 4 -12 1 -19z m276 -23 c-10 -13 -22 -25 -27 -25 -5 0 1
11 14 25 30 32 36 32 13 0z m-812 -13 c4 -4 10 -18 14 -32 7 -23 7 -24 -11
-10 -10 8 -23 21 -27 28 -13 19 -27 14 -24 -9 2 -12 17 -29 33 -38 16 -9 31
-17 33 -18 2 -2 2 -6 -1 -9 -12 -11 -82 36 -85 58 -6 38 4 51 35 43 15 -3 30
-9 33 -13z m1179 8 c0 -5 -4 -10 -9 -10 -6 0 -13 5 -16 10 -3 6 1 10 9 10 9 0
16 -4 16 -10z m-78 -22 c-7 -7 -12 -8 -12 -2 0 14 12 26 19 19 2 -3 -1 -11 -7
-17z m-152 2 c0 -5 -4 -10 -10 -10 -5 0 -10 5 -10 10 0 6 5 10 10 10 6 0 10
-4 10 -10z m191 -23 c-10 -9 -11 -8 -5 6 3 10 9 15 12 12 3 -3 0 -11 -7 -18z
m107 4 c3 -8 -1 -12 -9 -9 -7 2 -15 10 -17 17 -3 8 1 12 9 9 7 -2 15 -10 17
-17z m-683 -1 c52 -6 46 -7 -52 -8 -62 0 -113 4 -113 9 0 10 79 10 165 -1z
m190 0 c5 -7 -12 -9 -52 -5 -76 9 -80 15 -10 15 31 0 59 -5 62 -10z m521 -45
c-4 -14 -11 -25 -16 -25 -10 0 -4 43 8 65 9 15 14 -14 8 -40z m-444 5 c-15
-26 -32 -40 -32 -25 0 5 42 55 46 55 2 0 -5 -13 -14 -30z m-77 10 c-3 -5 -14
-10 -23 -9 -14 0 -13 2 3 9 27 11 27 11 20 0z m369 -4 c-3 -8 -15 -16 -27 -18
-12 -2 -26 -13 -32 -25 -11 -27 -31 -32 -20 -5 4 9 8 24 9 32 0 9 15 17 36 21
19 3 36 7 37 8 1 0 0 -5 -3 -13z m106 4 c0 -5 -7 -10 -15 -10 -8 0 -15 5 -15
10 0 6 7 10 15 10 8 0 15 -4 15 -10z m253 -2 c-6 -7 -13 -20 -16 -28 -3 -9 -6
-3 -6 13 -1 19 4 27 15 27 12 0 14 -4 7 -12z m-1553 -18 c0 -5 -2 -10 -4 -10
-3 0 -8 5 -11 10 -3 6 -1 10 4 10 6 0 11 -4 11 -10z m1081 -39 c-11 -21 -17
-47 -14 -60 4 -15 1 -21 -11 -21 -22 0 -20 22 5 67 29 53 30 53 35 53 2 0 -4
-17 -15 -39z m228 10 c-3 -6 -10 -7 -18 -2 -7 5 -10 14 -6 21 9 14 29 -2 24
-19z m431 14 c0 -8 -4 -15 -10 -15 -5 0 -10 7 -10 15 0 8 5 15 10 15 6 0 10
-7 10 -15z m-1692 -11 c39 -19 41 -28 5 -20 -16 3 -22 3 -15 0 7 -3 17 -15 23
-26 8 -15 8 -19 0 -14 -6 4 -11 3 -11 -3 0 -5 5 -13 10 -16 6 -3 10 -16 10
-28 0 -18 -3 -17 -23 13 -20 29 -44 110 -33 110 2 0 17 -7 34 -16z m782 0 c0
-8 -5 -12 -10 -9 -6 4 -8 11 -5 16 9 14 15 11 15 -7z m695 -11 c5 -16 9 -32
11 -38 23 -77 6 -69 -20 9 -19 58 -19 56 -7 56 5 0 12 -12 16 -27z m-361 11
c9 -3 16 -13 16 -21 0 -20 -34 -12 -38 10 -4 19 -1 20 22 11z m-927 -46 c-3
-7 -5 -2 -5 12 0 14 2 19 5 13 2 -7 2 -19 0 -25z m-137 3 c-5 -11 -7 -27 -4
-35 3 -9 1 -16 -5 -16 -6 0 -11 6 -11 13 0 24 13 57 22 57 5 0 4 -8 -2 -19z
m250 -16 c17 -9 30 -18 30 -20 0 -6 -52 16 -64 27 -16 13 3 9 34 -7z m-165
-42 c0 -24 -4 -43 -10 -43 -5 1 -9 10 -7 20 2 15 -3 20 -17 20 -16 0 -21 -6
-21 -25 0 -14 -4 -25 -10 -25 -11 0 -14 59 -4 85 5 11 16 15 38 13 29 -3 31
-5 31 -45z m605 37 c0 -5 -4 -10 -10 -10 -5 0 -10 5 -10 10 0 6 5 10 10 10 6
0 10 -4 10 -10z m400 -26 c0 -8 -4 -12 -10 -9 -5 3 -10 13 -10 21 0 8 5 12 10
9 6 -3 10 -13 10 -21z m260 18 c0 -5 -6 -16 -13 -27 -11 -14 -16 -15 -22 -5
-5 8 -4 11 2 7 6 -4 13 0 16 7 4 10 -3 16 -21 19 -24 4 -24 4 6 6 17 0 32 -3
32 -7z m-1209 -14 c13 -11 13 -21 3 -68 l-12 -55 -1 42 c-1 27 -7 45 -16 51
-10 5 -13 15 -9 25 7 20 15 21 35 5z m459 -14 c0 -8 -4 -12 -10 -9 -5 3 -10
10 -10 16 0 5 5 9 10 9 6 0 10 -7 10 -16z m218 -14 c-11 -18 -28 -27 -28 -16
0 16 14 36 26 36 12 0 12 -4 2 -20z m736 5 c-4 -8 -11 -12 -16 -9 -6 4 -5 10
3 15 19 12 19 11 13 -6z m-1609 -26 c5 -15 9 -18 15 -9 5 7 9 -4 12 -29 3 -32
1 -38 -9 -28 -18 18 -45 87 -34 87 5 0 13 -10 16 -21z m335 1 c0 -5 -7 -7 -15
-4 -9 4 -15 0 -15 -9 0 -8 10 -17 22 -20 12 -4 20 -8 17 -11 -8 -8 -79 6 -79
15 0 5 7 6 15 3 8 -4 15 -1 15 5 0 6 -4 11 -10 11 -5 0 -10 5 -10 10 0 6 14
10 30 10 17 0 30 -4 30 -10z m-95 -20 c19 -8 19 -9 -2 -9 -12 -1 -25 4 -28 9
-7 12 2 12 30 0z m667 -12 c-7 -7 -12 -8 -12 -2 0 14 12 26 19 19 2 -3 -1 -11
-7 -17z m-722 -245 c0 -7 -7 -13 -15 -13 -10 0 -15 10 -15 33 1 30 1 31 15 13
8 -11 15 -26 15 -33z m-213 -25 c-3 -7 -5 -2 -5 12 0 14 2 19 5 13 2 -7 2 -19
0 -25z m225 -100 c-7 -7 -12 -8 -12 -2 0 14 12 26 19 19 2 -3 -1 -11 -7 -17z
m57 -26 c-7 -20 -15 -29 -25 -25 -17 6 -18 -9 -1 -26 10 -10 9 -11 -5 -6 -24
9 -23 25 5 55 13 14 22 32 19 40 -3 11 -1 12 7 4 8 -7 8 -19 0 -42z m-389 -22
c0 -5 -8 -10 -17 -10 -15 0 -16 2 -3 10 19 12 20 12 20 0z m-25 -130 c-14 -27
-25 -62 -25 -78 0 -15 -7 -37 -15 -48 -14 -18 -15 -16 -10 26 8 64 14 81 42
118 34 46 37 40 8 -18z m46 13 c-10 -17 -10 -16 -11 3 0 23 13 41 18 25 2 -6
-1 -18 -7 -28z m89 -44 c15 -12 19 -19 10 -18 -30 3 -39 -1 -34 -16 4 -9 0
-15 -10 -15 -9 0 -16 -5 -16 -11 0 -6 7 -9 15 -5 19 7 19 -3 1 -23 -56 -61
-79 -81 -96 -81 -21 0 -27 15 -10 25 15 9 50 86 44 96 -3 5 2 20 11 33 14 21
27 29 55 35 3 0 16 -9 30 -20z m-10 -118 c-10 -21 -30 -37 -30 -26 0 14 21 45
31 45 6 0 6 -7 -1 -19z m-89 -71 l30 0 -16 -31 c-9 -17 -19 -29 -22 -26 -2 3
0 15 7 26 6 12 7 21 2 21 -6 0 -12 -8 -16 -17 -7 -24 -42 -84 -56 -97 -6 -6
-2 13 9 42 19 48 19 52 3 53 -16 1 -16 2 1 6 9 2 17 9 17 14 0 6 -4 7 -10 4
-5 -3 -10 -1 -10 5 0 7 7 9 16 6 9 -3 29 -6 45 -6z m-81 -74 c0 -2 -7 -7 -16
-10 -8 -3 -12 -2 -9 4 6 10 25 14 25 6z m63 -16 c-3 -11 -9 -20 -15 -20 -5 0
-4 9 2 20 6 11 12 20 14 20 2 0 2 -9 -1 -20z m-59 -59 c3 -5 -1 -14 -8 -20
-12 -10 -14 -9 -11 6 2 10 4 19 4 21 2 5 10 2 15 -7z m-4 -77 c0 -8 -5 -12
-10 -9 -6 4 -8 11 -5 16 9 14 15 11 15 -7z"/>
<path d="M3715 2290 c-3 -5 -1 -10 4 -10 6 0 11 5 11 10 0 6 -2 10 -4 10 -3 0
-8 -4 -11 -10z"/>
<path d="M3820 2270 c0 -5 5 -10 10 -10 6 0 10 5 10 10 0 6 -4 10 -10 10 -5 0
-10 -4 -10 -10z"/>
<path d="M2406 2412 c-2 -4 -1 -14 4 -22 7 -11 9 -9 7 8 -1 24 -3 26 -11 14z"/>
<path d="M2361 2383 c0 -25 1 -26 9 -8 12 27 12 35 0 35 -5 0 -10 -12 -9 -27z"/>
<path d="M3875 2390 c-3 -5 -1 -10 4 -10 6 0 11 5 11 10 0 6 -2 10 -4 10 -3 0
-8 -4 -11 -10z"/>
<path d="M2480 2384 c0 -13 18 -39 24 -34 2 3 -2 14 -10 24 -8 11 -14 16 -14
10z"/>
<path d="M2910 2373 c0 -11 3 -14 8 -7 4 6 14 14 22 17 10 4 8 6 -7 6 -16 1
-23 -5 -23 -16z"/>
<path d="M3003 2365 c-13 -9 -23 -25 -23 -35 0 -10 -6 -21 -12 -23 -7 -3 2 -3
19 0 20 3 39 0 48 -7 19 -15 28 4 22 46 -4 34 -23 41 -54 19z m34 -20 c0 -8
-9 -15 -20 -15 -16 0 -17 3 -7 15 7 8 16 15 20 15 3 0 7 -7 7 -15z"/>
<path d="M3092 2369 c-18 -7 -23 -15 -20 -36 3 -24 8 -28 40 -31 33 -3 38 0
44 24 5 20 2 31 -11 41 -21 15 -22 15 -53 2z m45 -25 c3 -8 1 -20 -4 -25 -14
-14 -43 0 -43 22 0 24 38 26 47 3z"/>
<path d="M3190 2362 c-27 -22 -22 -52 9 -52 11 0 23 -4 26 -10 14 -23 26 -7
23 32 -3 50 -22 59 -58 30z m34 -17 c-4 -8 -13 -15 -21 -15 -13 0 -13 3 -3 15
7 8 16 15 21 15 5 0 6 -7 3 -15z"/>
<path d="M4085 2360 c-3 -5 1 -10 9 -10 9 0 16 5 16 10 0 6 -4 10 -9 10 -6 0
-13 -4 -16 -10z"/>
<path d="M4157 2353 c-4 -3 -7 -11 -7 -17 0 -6 5 -5 12 2 6 6 9 14 7 17 -3 3
-9 2 -12 -2z"/>
<path d="M2362 2330 c0 -14 2 -19 5 -12 2 6 2 18 0 25 -3 6 -5 1 -5 -13z"/>
<path d="M2745 2340 c3 -5 13 -10 21 -10 8 0 19 -11 24 -25 12 -31 20 -33 12
-2 -3 12 -13 27 -21 34 -19 15 -45 17 -36 3z"/>
<path d="M2520 2330 c0 -5 5 -10 11 -10 5 0 7 5 4 10 -3 6 -8 10 -11 10 -2 0
-4 -4 -4 -10z"/>
<path d="M3297 2300 c-3 -11 -1 -20 4 -20 5 0 9 9 9 20 0 11 -2 20 -4 20 -2 0
-6 -9 -9 -20z"/>
<path d="M2560 2280 c27 -39 34 -39 12 0 -9 16 -21 30 -25 30 -5 0 1 -13 13
-30z"/>
<path d="M4161 2294 c0 -11 3 -14 6 -6 3 7 2 16 -1 19 -3 4 -6 -2 -5 -13z"/>
<path d="M2027 2284 c-4 -4 -3 -12 1 -18 4 -6 7 -15 7 -20 0 -5 6 -11 14 -14
10 -3 11 2 6 19 -9 29 -19 41 -28 33z"/>
<path d="M2918 2283 c7 -3 16 -2 19 1 4 3 -2 6 -13 5 -11 0 -14 -3 -6 -6z"/>
<path d="M2530 2261 c0 -5 5 -13 10 -16 6 -3 10 -2 10 4 0 5 -4 13 -10 16 -5
3 -10 2 -10 -4z"/>
<path d="M3380 2240 c0 -5 7 -7 15 -4 8 4 15 8 15 10 0 2 -7 4 -15 4 -8 0 -15
-4 -15 -10z"/>
<path d="M3436 2233 c-11 -11 -6 -23 9 -23 8 0 15 4 15 9 0 13 -16 22 -24 14z"/>
<path d="M4124 2226 c-3 -8 -4 -23 -2 -33 3 -11 6 -6 9 15 6 34 2 42 -7 18z"/>
<path d="M2714 2185 c-9 -22 1 -29 15 -11 8 10 9 16 1 21 -5 3 -13 -1 -16 -10z"/>
<path d="M2560 2180 c0 -5 5 -10 11 -10 5 0 7 5 4 10 -3 6 -8 10 -11 10 -2 0
-4 -4 -4 -10z"/>
<path d="M1858 2133 c7 -3 16 -2 19 1 4 3 -2 6 -13 5 -11 0 -14 -3 -6 -6z"/>
<path d="M1960 2123 c8 -3 21 -10 28 -16 9 -7 11 -6 6 7 -3 9 -16 16 -28 15
-14 0 -16 -2 -6 -6z"/>
<path d="M2072 2110 c0 -14 2 -19 5 -12 2 6 2 18 0 25 -3 6 -5 1 -5 -13z"/>
<path d="M2034 2025 c16 -24 23 -55 9 -42 -3 4 -12 2 -18 -3 -7 -6 -42 -21
-79 -33 -65 -23 -76 -37 -29 -37 13 0 32 9 43 20 23 23 34 26 27 6 -3 -8 -3
-17 1 -21 4 -4 7 -11 7 -16 0 -5 3 -9 8 -9 4 0 12 0 17 0 7 0 8 13 5 34 -5 26
-3 35 11 40 23 9 28 2 14 -24 -8 -16 -9 -25 -1 -33 13 -13 34 38 26 64 -4 12
-2 19 6 19 7 0 0 14 -16 30 -35 36 -54 39 -31 5z"/>
<path d="M1976 2031 c-17 -7 -16 -8 7 -24 16 -10 28 -13 32 -7 3 6 -1 13 -9
16 -9 3 -13 10 -10 15 6 10 6 10 -20 0z"/>
<path d="M1920 2010 c20 -13 33 -13 25 0 -3 6 -14 10 -23 10 -15 0 -15 -2 -2
-10z"/>
<path d="M1785 1970 c-4 -6 1 -18 11 -25 29 -22 39 -18 18 8 -10 12 -20 23
-20 25 -1 2 -5 -2 -9 -8z"/>
<path d="M1736 1922 c-3 -5 8 -6 25 -4 16 2 29 6 29 8 0 8 -49 4 -54 -4z"/>
<path d="M1850 1911 c0 -11 -4 -23 -10 -26 -6 -4 -7 1 -3 12 3 10 2 15 -2 10
-7 -6 -11 -22 -14 -62 -1 -6 -15 -19 -32 -29 -19 -11 -29 -14 -24 -6 6 9 4 11
-6 5 -20 -13 -79 -17 -79 -6 0 5 9 7 20 4 16 -4 19 -2 14 13 -5 16 -4 16 5 4
10 -13 15 -8 12 13 -2 12 24 8 38 -5 10 -11 15 -9 27 6 12 17 12 22 -3 38 -20
22 -55 25 -47 3 4 -9 0 -15 -9 -15 -8 0 -38 -16 -67 -36 -28 -19 -55 -33 -58
-29 -7 6 44 51 68 60 8 2 21 14 28 25 12 20 11 20 -7 11 -11 -6 -23 -16 -26
-21 -10 -16 -200 -140 -214 -140 -9 0 -11 -5 -5 -17 5 -10 7 -54 6 -99 -2 -63
2 -93 18 -137 12 -31 26 -57 31 -57 5 0 9 -6 9 -13 0 -8 14 -26 31 -41 28 -25
30 -31 25 -74 -4 -30 -1 -61 8 -87 18 -50 38 -50 131 -4 48 24 65 37 65 52 0
20 0 20 -20 -1 -12 -12 -27 -22 -34 -22 -8 0 -19 -7 -26 -15 -7 -9 -15 -14
-17 -11 -2 2 -16 -2 -31 -10 -27 -14 -27 -13 -30 21 -2 24 5 51 22 80 13 24
22 53 20 62 -3 10 -1 29 5 43 5 14 10 19 10 12 1 -8 10 -4 25 10 13 13 21 27
19 31 -3 5 -11 0 -19 -11 -14 -21 -48 -20 -61 1 -4 6 2 8 15 5 24 -7 32 16 10
25 -10 4 -9 8 2 16 13 9 12 12 -5 25 -11 9 -15 16 -9 16 6 0 19 -10 30 -21 10
-12 29 -25 42 -30 17 -7 22 -14 17 -29 -5 -15 -2 -18 14 -15 11 2 30 9 43 16
22 12 22 12 3 20 -19 7 -18 8 3 8 14 1 21 5 16 12 -3 6 -18 9 -31 6 -19 -3
-27 0 -30 14 -3 11 -10 19 -17 19 -6 0 -5 4 3 9 8 5 21 7 29 3 10 -3 13 -1 8
6 -4 7 -17 12 -29 12 -20 1 -20 2 -4 11 9 5 22 7 29 3 6 -4 8 -3 4 4 -3 6 2
15 11 21 10 6 13 11 6 11 -6 0 -14 -4 -17 -9 -6 -9 -54 -18 -149 -26 -39 -4
-56 -2 -52 5 3 5 18 10 33 10 42 1 141 27 168 44 30 20 31 28 2 17 -13 -4 -40
-6 -60 -4 -44 6 -97 -10 -127 -38 -12 -12 -25 -18 -28 -15 -12 12 24 40 101
77 43 21 84 43 90 48 12 9 67 25 78 23 4 -1 19 3 33 8 15 6 34 6 48 1 24 -9
96 13 83 26 -3 4 4 17 16 30 25 26 18 30 -16 8 -22 -15 -23 -15 -23 30 0 25
-2 47 -5 50 -2 3 -19 0 -36 -6 -27 -9 -36 -8 -62 11 -30 21 -30 21 -30 1z m39
-53 c-18 -35 -49 -51 -49 -26 0 16 31 48 47 48 11 0 11 -4 2 -22z m57 -50 c-3
-13 -6 -27 -6 -31 0 -4 -6 -2 -13 5 -17 15 -10 48 10 48 11 0 14 -6 9 -22z
m-63 -15 c-10 -8 -26 -12 -36 -9 -9 2 -15 0 -11 -5 3 -5 -8 -9 -25 -9 -16 0
-33 -4 -36 -10 -10 -15 -25 -12 -19 4 3 8 19 18 35 21 16 4 29 10 29 13 0 4
18 7 41 8 37 0 39 -1 22 -13z m-235 -13 c-7 -11 -16 -20 -21 -20 -4 0 -3 9 3
20 6 11 15 20 20 20 6 0 5 -9 -2 -20z m332 10 c0 -5 -4 -10 -10 -10 -5 0 -10
5 -10 10 0 6 5 10 10 10 6 0 10 -4 10 -10z m-397 -23 c-15 -27 -95 -109 -100
-103 -3 3 7 18 24 33 16 15 39 43 52 61 22 32 42 39 24 9z m90 8 c-3 -9 -8
-14 -10 -11 -3 3 -2 9 2 15 9 16 15 13 8 -4z m-123 -90 c-7 -9 -15 -13 -18
-10 -3 2 1 11 8 20 7 9 15 13 18 10 3 -2 -1 -11 -8 -20z m97 -131 c-3 -3 -12
-4 -19 -1 -8 3 -5 6 6 6 11 1 17 -2 13 -5z m-104 -81 c-7 -3 -13 -11 -13 -19
0 -8 -5 -14 -11 -14 -6 0 -8 7 -5 16 3 9 6 25 6 37 0 21 1 21 18 3 12 -13 14
-20 5 -23z m92 -99 c-8 -16 -20 -56 -27 -88 -9 -48 -13 -55 -19 -38 -5 12 -4
34 1 49 4 16 11 45 15 65 3 23 12 38 23 40 24 6 24 5 7 -28z"/>
<path d="M4352 1873 c-1 -13 -5 -23 -9 -23 -5 0 -7 -17 -7 -38 2 -33 -3 -42
-27 -56 -28 -17 -66 -73 -56 -83 12 -11 56 31 81 77 21 39 26 60 23 97 -2 27
-4 38 -5 26z m-42 -147 c0 -3 -4 -8 -10 -11 -5 -3 -10 -1 -10 4 0 6 5 11 10
11 6 0 10 -2 10 -4z"/>
<path d="M3945 1821 c3 -18 5 -37 5 -42 0 -5 7 -9 15 -9 8 0 15 -9 15 -20 0
-18 5 -19 83 -14 45 3 92 6 105 6 33 0 27 25 -9 32 -17 3 -61 6 -98 6 -70 1
-94 11 -111 51 -9 22 -10 21 -5 -10z"/>
<path d="M2027 1793 c-9 -8 24 -32 44 -33 9 0 22 -7 29 -15 7 -9 15 -13 18
-11 6 6 -15 26 -50 49 -31 19 -32 20 -41 10z"/>
<path d="M3040 1769 c0 -5 11 -9 25 -9 14 0 25 2 25 4 0 2 -11 6 -25 8 -14 3
-25 1 -25 -3z"/>
<path d="M4235 1770 c3 -5 8 -10 11 -10 2 0 4 5 4 10 0 6 -5 10 -11 10 -5 0
-7 -4 -4 -10z"/>
<path d="M3776 1758 c-9 -5 -74 -14 -143 -19 -151 -10 -177 -22 -168 -74 3
-19 8 -52 11 -72 3 -21 11 -44 16 -51 8 -9 7 -11 -6 -6 -19 7 -22 -12 -2 -23
11 -6 12 -20 6 -58 -4 -27 -13 -51 -19 -53 -16 -5 -14 -22 3 -22 8 0 17 12 20
26 7 25 9 26 64 20 206 -21 194 -21 190 5 -3 23 -6 24 -86 24 -45 0 -82 3 -82
8 0 4 6 7 13 7 9 0 9 2 -1 9 -8 4 -12 14 -10 22 1 8 -8 29 -21 47 -23 33 -23
33 -3 39 13 3 18 11 15 23 -3 10 0 21 6 24 6 4 11 15 11 26 0 24 20 31 112 37
66 5 77 8 82 26 3 12 8 18 12 14 4 -3 -1 -18 -10 -31 -20 -32 -21 -66 -1 -66
8 0 25 -5 38 -12 12 -6 29 -14 37 -18 17 -8 82 9 92 25 9 13 4 -35 -7 -60 -5
-11 -13 -23 -19 -27 -7 -5 -7 -8 2 -8 6 0 12 -9 12 -20 0 -11 4 -20 9 -20 14
0 23 -51 11 -65 -8 -9 -8 -15 0 -20 5 -3 10 -11 10 -16 0 -9 -17 -7 -58 9 -12
4 -12 1 -1 -17 19 -30 66 -29 71 2 5 38 -11 300 -21 332 -9 28 -9 27 -11 -20
-1 -27 -4 -44 -7 -37 -7 19 -23 14 -16 -5 5 -15 3 -14 -10 2 -16 19 -16 19
-17 1 0 -15 -3 -16 -15 -6 -17 14 -35 5 -35 -16 0 -14 -2 -13 -16 0 -8 9 -20
16 -25 16 -5 0 -9 5 -9 10 0 6 7 10 15 10 11 0 15 11 15 39 0 42 -21 57 -54
39z m181 -240 c-3 -7 -5 -2 -5 12 0 14 2 19 5 13 2 -7 2 -19 0 -25z"/>
<path d="M2542 1740 c0 -14 2 -19 5 -12 2 6 2 18 0 25 -3 6 -5 1 -5 -13z"/>
<path d="M1950 1740 c0 -5 5 -10 11 -10 5 0 7 5 4 10 -3 6 -8 10 -11 10 -2 0
-4 -4 -4 -10z"/>
<path d="M2151 1734 c0 -11 3 -14 6 -6 3 7 2 16 -1 19 -3 4 -6 -2 -5 -13z"/>
<path d="M3857 1737 c-13 -34 -8 -57 12 -57 25 0 36 16 17 27 -7 4 -16 17 -18
28 -3 19 -4 19 -11 2z"/>
<path d="M1838 1733 c-16 -2 -28 -8 -28 -13 0 -5 15 -7 33 -4 17 3 44 6 59 7
14 1 30 5 34 10 7 7 -49 7 -98 0z"/>
<path d="M3176 1689 c-3 -17 -6 -50 -5 -73 1 -34 2 -37 8 -16 6 20 13 25 35
23 23 -2 27 1 20 15 -4 9 -9 32 -12 50 -6 44 -37 44 -46 1z"/>
<path d="M3920 1705 c7 -9 15 -13 17 -11 7 7 -7 26 -19 26 -6 0 -6 -6 2 -15z"/>
<path d="M3115 1680 c11 -5 27 -9 35 -9 9 0 8 4 -5 9 -11 5 -27 9 -35 9 -9 0
-8 -4 5 -9z"/>
<path d="M2516 1662 c-8 -14 -25 -94 -18 -87 7 6 31 95 26 95 -2 0 -5 -4 -8
-8z"/>
<path d="M2826 1651 c-3 -5 12 -8 34 -7 22 0 40 4 40 8 0 11 -68 10 -74 -1z"/>
<path d="M4230 1649 c0 -8 7 -24 15 -35 11 -15 14 -16 15 -3 0 8 -7 24 -15 35
-11 15 -14 16 -15 3z"/>
<path d="M2531 1614 c0 -11 3 -14 6 -6 3 7 2 16 -1 19 -3 4 -6 -2 -5 -13z"/>
<path d="M2870 1600 c0 -5 4 -10 9 -10 6 0 13 5 16 10 3 6 -1 10 -9 10 -9 0
-16 -4 -16 -10z"/>
<path d="M3206 1602 c-3 -5 1 -9 9 -9 8 0 12 4 9 9 -3 4 -7 8 -9 8 -2 0 -6 -4
-9 -8z"/>
<path d="M3401 1601 c-15 -10 -25 -71 -12 -71 5 0 17 -7 26 -16 22 -22 31 -10
17 21 -10 21 -9 30 4 50 15 24 15 25 -2 25 -11 0 -25 -4 -33 -9z"/>
<path d="M2913 1578 c6 -20 -6 -21 -60 -2 -14 6 -16 4 -6 -6 10 -11 55 -24
113 -33 9 -2 22 -7 30 -12 8 -6 30 -15 48 -21 28 -10 31 -10 21 2 -6 8 -20 14
-30 14 -21 0 -24 11 -8 27 8 8 8 13 0 17 -6 4 -11 2 -11 -5 0 -10 -3 -10 -12
-1 -7 7 -23 12 -37 12 -18 0 -22 3 -13 9 10 6 7 10 -13 13 -23 5 -26 3 -22
-14z"/>
<path d="M3869 1587 c-1 -1 -3 -23 -4 -49 -1 -34 2 -48 12 -48 7 0 13 -6 13
-12 0 -7 7 0 15 16 18 34 19 39 4 30 -12 -7 -3 33 11 51 5 6 -3 11 -21 12 -16
1 -30 1 -30 0z"/>
<path d="M4256 1553 c8 -34 10 -37 23 -29 7 5 7 15 -1 31 -15 34 -30 32 -22
-2z"/>
<path d="M3340 1496 c0 -19 5 -38 10 -41 6 -3 10 1 10 9 0 9 5 15 12 14 17 -4
23 33 6 43 -26 17 -38 9 -38 -25z"/>
<path d="M2040 1480 c1 -8 8 -26 16 -40 l15 -25 -6 30 c-7 33 -25 59 -25 35z"/>
<path d="M2220 1460 c0 -5 5 -10 10 -10 6 0 10 5 10 10 0 6 -4 10 -10 10 -5 0
-10 -4 -10 -10z"/>
<path d="M2397 1451 c-4 -17 -3 -21 5 -13 5 5 8 16 6 23 -3 8 -7 3 -11 -10z"/>
<path d="M2420 1440 c-8 -14 -8 -20 0 -20 6 0 13 7 17 16 3 8 12 13 19 10 8
-3 14 -1 14 4 0 18 -39 10 -50 -10z"/>
<path d="M3417 1421 c-19 -32 -21 -41 -9 -41 16 0 31 17 37 43 9 36 -6 35 -28
-2z"/>
<path d="M3760 1432 c0 -10 4 -22 10 -28 6 -6 -1 -9 -23 -7 -187 14 -247 15
-247 4 0 -6 18 -11 43 -12 41 -1 41 -1 15 -12 -29 -11 -38 -27 -15 -27 8 0 7
-4 -3 -10 -10 -7 -11 -10 -2 -10 7 0 15 7 18 15 4 8 15 15 25 15 11 0 16 5 13
13 -3 9 7 14 33 15 30 2 35 0 25 -10 -20 -20 -15 -41 7 -29 10 6 22 7 27 3 5
-4 3 0 -4 10 -11 14 -9 16 23 16 35 0 50 -20 23 -31 -8 -3 -6 -6 5 -6 9 -1 17
5 17 12 0 9 2 9 9 -1 4 -7 6 -25 3 -38 -5 -25 -5 -25 -94 -20 -64 4 -88 2 -86
-6 4 -11 91 -33 159 -40 33 -3 34 -2 39 37 4 33 7 23 15 -52 l10 -93 -23 0
c-12 0 -25 -6 -28 -14 -8 -20 20 -69 55 -98 16 -14 31 -36 33 -48 2 -19 14
-26 56 -38 48 -14 56 -13 105 5 l52 20 3 49 c2 27 7 54 13 60 11 13 24 104 15
104 -4 0 -11 -10 -16 -22 -8 -22 -9 -22 -9 5 -1 15 4 27 10 27 12 0 7 93 -7
136 -5 16 -2 15 15 -5 15 -16 21 -19 21 -8 0 10 16 16 51 21 43 6 49 9 39 22
-11 12 -14 12 -25 -3 -13 -17 -51 -11 -40 7 3 5 2 10 -3 10 -6 0 -13 -7 -16
-16 -9 -24 -24 -8 -31 36 -4 22 -10 42 -15 45 -4 3 -4 -12 1 -33 11 -48 11
-54 0 -48 -5 4 -12 24 -16 46 -4 22 -11 40 -17 40 -6 0 -8 -6 -5 -14 3 -8 -1
-20 -9 -26 -20 -17 -18 -35 6 -46 13 -6 -16 -8 -84 -6 -64 2 -112 -1 -125 -7
-20 -11 -21 -9 -21 24 0 20 4 34 9 31 5 -3 7 -15 4 -26 -3 -11 0 -20 6 -20 6
0 11 12 12 28 0 15 3 21 6 15 6 -15 23 -17 23 -3 0 6 -16 18 -35 27 -19 9 -35
20 -35 25 0 4 -4 8 -10 8 -5 0 -10 -8 -10 -18z"/>
<path d="M4090 1440 c0 -5 7 -10 15 -10 8 0 15 5 15 10 0 6 -7 10 -15 10 -8 0
-15 -4 -15 -10z"/>
<path d="M2933 1433 c-21 -8 -15 -23 9 -23 12 0 18 -3 15 -7 -4 -3 5 -12 19
-20 34 -17 34 -17 34 6 0 32 -45 58 -77 44z"/>
<path d="M3340 1430 c0 -5 7 -10 16 -10 8 0 12 5 9 10 -3 6 -10 10 -16 10 -5
0 -9 -4 -9 -10z"/>
<path d="M1738 1365 c-68 -65 -78 -77 -57 -72 19 4 143 138 127 137 -2 -1 -33
-30 -70 -65z"/>
<path d="M3870 1397 c0 -15 4 -27 8 -27 10 0 9 36 -1 46 -4 4 -7 -5 -7 -19z"/>
<path d="M1818 1392 c-16 -9 -28 -20 -28 -24 0 -10 50 11 70 29 22 20 -8 17
-42 -5z"/>
<path d="M4287 1379 c4 -13 8 -18 11 -10 2 7 -1 18 -6 23 -8 8 -9 4 -5 -13z"/>
<path d="M3027 1383 c-10 -10 -8 -33 2 -33 6 0 9 9 8 20 -1 23 -1 22 -10 13z"/>
<path d="M4226 1364 c-3 -7 0 -16 6 -20 7 -5 5 -12 -7 -21 -11 -7 -14 -13 -8
-13 10 0 63 45 63 53 0 12 -50 13 -54 1z"/>
<path d="M3460 1345 c0 -8 5 -15 10 -15 6 0 10 7 10 15 0 8 -4 15 -10 15 -5 0
-10 -7 -10 -15z"/>
<path d="M3498 1337 c-3 -19 -2 -25 4 -19 6 6 8 18 6 28 -3 14 -5 12 -10 -9z"/>
<path d="M4178 1313 c7 -3 16 -2 19 1 4 3 -2 6 -13 5 -11 0 -14 -3 -6 -6z"/>
<path d="M4118 1303 c6 -2 18 -2 25 0 6 3 1 5 -13 5 -14 0 -19 -2 -12 -5z"/>
<path d="M2034 1289 c-12 -5 3 -8 41 -8 33 0 67 4 75 9 18 11 -86 11 -116 -1z"/>
<path d="M4160 1265 c-20 -24 -8 -50 24 -50 32 0 53 23 43 49 -8 20 -50 21
-67 1z"/>
<path d="M1635 1239 c-10 -30 0 -33 13 -4 6 14 7 25 2 25 -5 0 -12 -9 -15 -21z"/>
<path d="M2630 1221 c0 -5 5 -13 10 -16 6 -3 10 -2 10 4 0 5 -4 13 -10 16 -5
3 -10 2 -10 -4z"/>
<path d="M1771 1212 c0 -7 -12 -17 -25 -22 -36 -13 -42 -45 -15 -78 18 -23 21
-24 15 -5 -5 14 -1 29 11 42 16 20 18 20 24 4 6 -16 8 -15 17 7 7 19 6 26 -4
28 -7 2 -15 11 -17 20 -3 9 -5 11 -6 4z m-24 -54 c-3 -8 -6 -5 -6 6 -1 11 2
17 5 13 3 -3 4 -12 1 -19z"/>
<path d="M3613 1203 c-19 -7 -16 -31 6 -43 29 -15 61 -12 68 6 11 29 -37 53
-74 37z"/>
<path d="M1830 1185 c0 -19 9 -19 34 0 19 14 19 15 -7 15 -17 0 -27 -5 -27
-15z"/>
<path d="M2740 1179 c0 -5 5 -7 10 -4 6 3 10 8 10 11 0 2 -4 4 -10 4 -5 0 -10
-5 -10 -11z"/>
<path d="M2235 1160 c-4 -6 -2 -17 4 -23 15 -15 25 -2 13 19 -7 12 -11 13 -17
4z"/>
<path d="M1836 1119 c-21 -11 -47 -18 -57 -16 -11 3 -17 1 -14 -3 3 -5 1 -11
-5 -15 -5 -3 -10 -17 -10 -30 0 -13 -4 -26 -8 -29 -5 -3 -7 9 -5 27 3 24 2 28
-6 17 -13 -22 -30 -150 -19 -156 4 -3 8 -16 8 -28 0 -13 9 -34 20 -47 17 -21
19 -21 13 -4 -3 11 -10 25 -15 32 -5 7 -5 14 2 18 5 3 10 12 10 18 0 7 -4 6
-10 -3 -6 -9 -10 -10 -10 -3 0 6 -3 18 -6 27 -4 11 5 18 35 26 51 14 54 25 4
15 -37 -6 -37 -6 -15 10 12 9 22 26 22 37 0 11 8 27 18 34 15 12 15 15 2 24
-8 5 -10 10 -5 10 6 0 21 3 34 7 22 6 23 4 19 -36 -2 -22 0 -41 4 -41 9 0 12
22 9 61 -2 21 5 30 29 40 16 8 30 17 30 21 0 14 -35 8 -74 -13z m-109 -131
c-3 -8 -6 -5 -6 6 -1 11 2 17 5 13 3 -3 4 -12 1 -19z"/>
<path d="M1885 1030 c19 -8 19 -9 1 -9 -11 -1 -17 -4 -13 -7 9 -9 48 6 42 17
-4 5 -16 9 -28 8 -21 0 -21 -1 -2 -9z"/>
<path d="M1785 1000 c-3 -5 -1 -10 4 -10 6 0 11 5 11 10 0 6 -2 10 -4 10 -3 0
-8 -4 -11 -10z"/>
<path d="M1878 983 c6 -2 18 -2 25 0 6 3 1 5 -13 5 -14 0 -19 -2 -12 -5z"/>
<path d="M2526 963 c-6 -14 -5 -15 5 -6 7 7 10 15 7 18 -3 3 -9 -2 -12 -12z"/>
<path d="M1860 930 c0 -5 5 -10 10 -10 6 0 10 5 10 10 0 6 -4 10 -10 10 -5 0
-10 -4 -10 -10z"/>
<path d="M2495 905 c-11 -19 -16 -37 -12 -41 4 -4 7 0 7 9 0 16 11 21 38 18 6
-1 12 3 12 9 0 5 -3 9 -7 9 -20 -3 -24 2 -13 16 7 8 8 15 3 15 -6 0 -18 -16
-28 -35z"/>
<path d="M2550 900 c0 -5 6 -10 14 -10 8 0 18 5 21 10 3 6 -3 10 -14 10 -12 0
-21 -4 -21 -10z"/>
<path d="M4115 860 c-3 -6 1 -7 9 -4 18 7 21 14 7 14 -6 0 -13 -4 -16 -10z"/>
<path d="M1760 850 c0 -13 11 -13 30 0 12 8 11 10 -7 10 -13 0 -23 -4 -23 -10z"/>
<path d="M2467 843 c-9 -9 -9 -43 1 -43 4 0 8 11 8 25 2 27 1 29 -9 18z"/>
<path d="M3998 833 c7 -3 16 -2 19 1 4 3 -2 6 -13 5 -11 0 -14 -3 -6 -6z"/>
<path d="M2437 773 c-11 -10 -8 -65 2 -58 6 3 17 -11 27 -30 15 -33 48 -65 66
-65 18 0 6 16 -28 39 -28 20 -34 29 -29 48 4 16 1 23 -10 23 -8 0 -15 5 -15
11 0 6 7 9 15 5 18 -7 20 10 3 18 -7 3 -4 4 7 3 13 -2 19 -9 17 -22 -3 -20 -2
-20 13 -1 8 11 15 22 15 25 0 9 -75 12 -83 4z"/>
<path d="M2151 733 c0 -25 1 -26 9 -8 12 27 12 35 0 35 -5 0 -10 -12 -9 -27z"/>
<path d="M2470 611 c0 -6 4 -13 10 -16 6 -3 7 1 4 9 -7 18 -14 21 -14 7z"/>
<path d="M2560 612 c0 -9 89 -56 95 -50 2 1 -19 15 -46 31 -27 15 -49 23 -49
19z"/>
<path d="M2501 564 c0 -11 3 -14 6 -6 3 7 2 16 -1 19 -3 4 -6 -2 -5 -13z"/>
<path d="M2575 510 c3 -5 11 -10 16 -10 6 0 7 5 4 10 -3 6 -11 10 -16 10 -6 0
-7 -4 -4 -10z"/>
<path d="M2547 479 c4 -13 8 -18 11 -10 2 7 -1 18 -6 23 -8 8 -9 4 -5 -13z"/>
<path d="M2520 453 c11 -43 19 -55 32 -47 7 5 9 1 5 -9 -8 -21 1 -47 16 -47 7
0 7 4 -1 12 -27 27 -10 30 18 3 17 -16 30 -24 30 -18 0 7 -11 20 -25 31 -14
11 -25 24 -25 29 0 5 -8 16 -17 24 -10 9 -23 25 -30 35 -10 16 -10 14 -3 -13z"/>
<path d="M3750 409 c0 -5 5 -7 10 -4 6 3 10 8 10 11 0 2 -4 4 -10 4 -5 0 -10
-5 -10 -11z"/>
<path d="M3710 270 c0 -5 5 -10 11 -10 5 0 7 5 4 10 -3 6 -8 10 -11 10 -2 0
-4 -4 -4 -10z"/>
</g>
</svg>
